<svg xmlns="http://www.w3.org/2000/svg" viewBox="0 0 800 500" width="800" height="500" font-family="'Noto Sans TC','Microsoft JhengHei','PingFang TC',sans-serif"><defs><filter id="sh" x="-10%" y="-10%" width="120%" height="130%"><feDropShadow dx="0" dy="6" stdDeviation="8" flood-color="#000" flood-opacity="0.28"/></filter><filter id="glow" x="-50%" y="-50%" width="200%" height="200%"><feGaussianBlur stdDeviation="6" result="b"/><feMerge><feMergeNode in="b"/><feMergeNode in="SourceGraphic"/></feMerge></filter><linearGradient id="fbg" x1="0" y1="0" x2="1" y2="1"><stop offset="0" stop-color="#0c0a1d"/><stop offset="1" stop-color="#3b0764"/></linearGradient><radialGradient id="rune" cx="0.5" cy="0.5" r="0.5"><stop offset="0" stop-color="#a855f7" stop-opacity="0.55"/><stop offset="1" stop-color="#3b0764" stop-opacity="0"/></radialGradient></defs><rect x="0" y="0" width="800" height="500" rx="0" fill="url(#fbg)" /><circle cx="258" cy="166" r="0.8" fill="#e9d5ff" opacity="0.39"/><circle cx="117" cy="149" r="1.1" fill="#e9d5ff" opacity="0.67"/><circle cx="626" cy="121" r="0.7" fill="#e9d5ff" opacity="0.72"/><circle cx="512" cy="1" r="1.6" fill="#e9d5ff" opacity="0.27"/><circle cx="509" cy="88" r="1.5" fill="#e9d5ff" opacity="0.39"/><circle cx="397" cy="93" r="0.9" fill="#e9d5ff" opacity="0.34"/><circle cx="564" cy="398" r="0.8" fill="#e9d5ff" opacity="0.60"/><circle cx="231" cy="98" r="0.6" fill="#e9d5ff" opacity="0.88"/><circle cx="713" cy="286" r="1.7" fill="#e9d5ff" opacity="0.70"/><circle cx="551" cy="39" r="0.6" fill="#e9d5ff" opacity="0.85"/><circle cx="724" cy="378" r="0.8" fill="#e9d5ff" opacity="0.50"/><circle cx="89" cy="48" r="1.2" fill="#e9d5ff" opacity="0.87"/><circle cx="800" cy="401" r="1.2" fill="#e9d5ff" opacity="0.33"/><circle cx="455" cy="321" r="1.5" fill="#e9d5ff" opacity="0.66"/><circle cx="124" cy="179" r="1.7" fill="#e9d5ff" opacity="0.29"/><circle cx="790" cy="498" r="1.0" fill="#e9d5ff" opacity="0.69"/><circle cx="620" cy="271" r="0.8" fill="#e9d5ff" opacity="0.68"/><circle cx="412" cy="377" r="0.7" fill="#e9d5ff" opacity="0.85"/><circle cx="13" cy="484" r="1.8" fill="#e9d5ff" opacity="0.29"/><circle cx="647" cy="20" r="1.5" fill="#e9d5ff" opacity="0.82"/><circle cx="443" cy="60" r="0.8" fill="#e9d5ff" opacity="0.63"/><circle cx="576" cy="352" r="1.1" fill="#e9d5ff" opacity="0.74"/><circle cx="708" cy="335" r="0.6" fill="#e9d5ff" opacity="0.47"/><circle cx="94" cy="8" r="1.6" fill="#e9d5ff" opacity="0.94"/><circle cx="768" cy="212" r="1.2" fill="#e9d5ff" opacity="0.30"/><circle cx="492" cy="74" r="1.5" fill="#e9d5ff" opacity="0.82"/><circle cx="27" cy="358" r="0.5" fill="#e9d5ff" opacity="0.32"/><circle cx="477" cy="58" r="1.6" fill="#e9d5ff" opacity="0.98"/><circle cx="105" cy="452" r="1.6" fill="#e9d5ff" opacity="0.43"/><circle cx="214" cy="395" r="1.6" fill="#e9d5ff" opacity="0.37"/><circle cx="152" cy="12" r="0.6" fill="#e9d5ff" opacity="0.90"/><circle cx="686" cy="256" r="1.5" fill="#e9d5ff" opacity="0.98"/><circle cx="590" cy="364" r="1.5" fill="#e9d5ff" opacity="0.56"/><circle cx="518" cy="137" r="1.3" fill="#e9d5ff" opacity="0.91"/><circle cx="482" cy="318" r="1.0" fill="#e9d5ff" opacity="0.66"/><circle cx="294" cy="232" r="1.6" fill="#e9d5ff" opacity="0.26"/><circle cx="498" cy="36" r="0.5" fill="#e9d5ff" opacity="0.80"/><circle cx="9" cy="46" r="1.4" fill="#e9d5ff" opacity="0.33"/><circle cx="208" cy="347" r="0.6" fill="#e9d5ff" opacity="0.57"/><circle cx="111" cy="487" r="1.4" fill="#e9d5ff" opacity="0.46"/><circle cx="500" cy="272" r="1.4" fill="#e9d5ff" opacity="0.83"/><circle cx="198" cy="449" r="1.6" fill="#e9d5ff" opacity="0.57"/><circle cx="257" cy="145" r="1.6" fill="#e9d5ff" opacity="0.90"/><circle cx="536" cy="165" r="0.9" fill="#e9d5ff" opacity="0.40"/><circle cx="287" cy="496" r="1.0" fill="#e9d5ff" opacity="0.79"/><circle cx="697" cy="244" r="1.8" fill="#e9d5ff" opacity="0.83"/><circle cx="671" cy="268" r="1.0" fill="#e9d5ff" opacity="0.65"/><circle cx="261" cy="193" r="1.8" fill="#e9d5ff" opacity="0.91"/><circle cx="723" cy="337" r="0.9" fill="#e9d5ff" opacity="0.31"/><circle cx="691" cy="52" r="0.7" fill="#e9d5ff" opacity="0.52"/><circle cx="250" cy="260" r="210" fill="url(#rune)" /><circle cx="250" cy="260" r="170" fill="none" stroke="#c4b5fd" stroke-width="2" stroke-dasharray="4 10" opacity="0.6"/><circle cx="250" cy="260" r="130" fill="none" stroke="#f0abfc" stroke-width="1.5" opacity="0.5"/><g transform="translate(110 150) scale(1.45) rotate(-16 50 140)"><rect x="0" y="0" width="100" height="140" rx="10" fill="#a855f7" /><rect x="4" y="4" width="92" height="132" rx="8" fill="#1c1917" /><rect x="8" y="10" width="84" height="64" rx="6" fill="#4c1d95" /><path d="M34 40 a16 16 0 0 1 32 0 v10 h-6 v8 h-20 v-8 h-6z" fill="#ffffff" opacity="0.85"/><rect x="6" y="76" width="88" height="18" rx="4" fill="#44403c" stroke="#a855f7"/><text x="50" y="89" font-size="9.5" fill="#fff" font-weight="700" text-anchor="middle" >暗影刺客</text><rect x="16" y="102" width="68" height="3.5" rx="2" fill="#57534e" /><rect x="16" y="110" width="52" height="3.5" rx="2" fill="#57534e" /><circle cx="12" cy="12" r="12" fill="#2563eb" stroke="#fff" stroke-width="2"/><text x="12" y="17" font-size="13" fill="#fff" font-weight="900" text-anchor="middle" >3</text><circle cx="12" cy="128" r="12" fill="#f59e0b" stroke="#fff" stroke-width="2"/><text x="12" y="133" font-size="13" fill="#fff" font-weight="900" text-anchor="middle" >4</text><circle cx="88" cy="128" r="12" fill="#dc2626" stroke="#fff" stroke-width="2"/><text x="88" y="133" font-size="13" fill="#fff" font-weight="900" text-anchor="middle" >2</text><circle cx="50" cy="96" r="4" fill="#a855f7" /></g><g transform="translate(250 140) scale(1.45) rotate(14 50 140)"><rect x="0" y="0" width="100" height="140" rx="10" fill="#3b82f6" /><rect x="4" y="4" width="92" height="132" rx="8" fill="#1c1917" /><rect x="8" y="10" width="84" height="64" rx="6" fill="#ca8a04" /><path d="M50 18 l22 8 v18 q0 18 -22 28 q-22 -10 -22 -28 v-18z" fill="#ffffff" opacity="0.85"/><rect x="6" y="76" width="88" height="18" rx="4" fill="#44403c" stroke="#3b82f6"/><text x="50" y="89" font-size="9.5" fill="#fff" font-weight="700" text-anchor="middle" >聖光守衛</text><rect x="16" y="102" width="68" height="3.5" rx="2" fill="#57534e" /><rect x="16" y="110" width="52" height="3.5" rx="2" fill="#57534e" /><circle cx="12" cy="12" r="12" fill="#2563eb" stroke="#fff" stroke-width="2"/><text x="12" y="17" font-size="13" fill="#fff" font-weight="900" text-anchor="middle" >4</text><circle cx="12" cy="128" r="12" fill="#f59e0b" stroke="#fff" stroke-width="2"/><text x="12" y="133" font-size="13" fill="#fff" font-weight="900" text-anchor="middle" >3</text><circle cx="88" cy="128" r="12" fill="#dc2626" stroke="#fff" stroke-width="2"/><text x="88" y="133" font-size="13" fill="#fff" font-weight="900" text-anchor="middle" >6</text></g><g transform="translate(175 110) scale(1.6)"><g filter="url(#glow)"><rect x="-4" y="-4" width="108" height="148" rx="14" fill="#f59e0b" opacity="0.7"/></g><rect x="0" y="0" width="100" height="140" rx="10" fill="#f59e0b" /><rect x="4" y="4" width="92" height="132" rx="8" fill="#1c1917" /><rect x="8" y="10" width="84" height="64" rx="6" fill="#b91c1c" /><path d="M24 62 q8 -34 34 -40 l-4 10 l16 -4 l-6 12 q14 4 12 22 q-14 -10 -26 -2 q-10 8 -26 2z" fill="#ffffff" opacity="0.85"/><rect x="6" y="76" width="88" height="18" rx="4" fill="#44403c" stroke="#f59e0b"/><text x="50" y="89" font-size="9.5" fill="#fff" font-weight="700" text-anchor="middle" >遠古炎龍</text><rect x="16" y="102" width="68" height="3.5" rx="2" fill="#57534e" /><rect x="16" y="110" width="52" height="3.5" rx="2" fill="#57534e" /><circle cx="12" cy="12" r="12" fill="#2563eb" stroke="#fff" stroke-width="2"/><text x="12" y="17" font-size="13" fill="#fff" font-weight="900" text-anchor="middle" >8</text><circle cx="12" cy="128" r="12" fill="#f59e0b" stroke="#fff" stroke-width="2"/><text x="12" y="133" font-size="13" fill="#fff" font-weight="900" text-anchor="middle" >8</text><circle cx="88" cy="128" r="12" fill="#dc2626" stroke="#fff" stroke-width="2"/><text x="88" y="133" font-size="13" fill="#fff" font-weight="900" text-anchor="middle" >8</text><circle cx="50" cy="96" r="4" fill="#f59e0b" /></g><text x="600" y="120" font-size="52" fill="#fde68a" font-weight="900" text-anchor="middle" stroke="#3b0764" stroke-width="10" paint-order="stroke" stroke-linejoin="round">幻境對決</text><text x="600" y="154" font-size="18" fill="#e9d5ff" font-weight="900" text-anchor="middle" font-family="'JetBrains Mono',Consolas,'Courier New',monospace" stroke="#3b0764" stroke-width="5" paint-order="stroke" stroke-linejoin="round">MYTHIC DUEL</text><path d="M490 186 h220 l14 20 l-14 20 h-220 l-14 -20z" fill="#f59e0b" stroke="#fde68a" stroke-width="2"/><text x="600" y="212" font-size="16" fill="#3b0764" font-weight="900" text-anchor="middle" >對戰</text><path d="M490 240 h220 l14 20 l-14 20 h-220 l-14 -20z" fill="#2e1065" stroke="#7c3aed" stroke-width="2"/><text x="600" y="266" font-size="16" fill="#e9d5ff" font-weight="900" text-anchor="middle" >冒險模式</text><path d="M490 294 h220 l14 20 l-14 20 h-220 l-14 -20z" fill="#2e1065" stroke="#7c3aed" stroke-width="2"/><text x="600" y="320" font-size="16" fill="#e9d5ff" font-weight="900" text-anchor="middle" >我的牌組</text><path d="M490 348 h220 l14 20 l-14 20 h-220 l-14 -20z" fill="#2e1065" stroke="#7c3aed" stroke-width="2"/><text x="600" y="374" font-size="16" fill="#e9d5ff" font-weight="900" text-anchor="middle" >卡包商店</text><path d="M490 402 h220 l14 20 l-14 20 h-220 l-14 -20z" fill="#2e1065" stroke="#7c3aed" stroke-width="2"/><text x="600" y="428" font-size="16" fill="#e9d5ff" font-weight="900" text-anchor="middle" >設定</text><circle cx="496" cy="354" r="8" fill="#ef4444" /><text x="496" y="358" font-size="9" fill="#fff" font-weight="900" text-anchor="middle" >2</text><text x="24" y="484" font-size="10.5" fill="#c4b5fd" font-weight="400" text-anchor="start" >伺服器：亞洲 · 線上 12,804 人</text><text x="776" y="484" font-size="10" fill="#a78bfa" font-weight="700" text-anchor="end" >v2.4.0</text></svg>
