<svg xmlns="http://www.w3.org/2000/svg" viewBox="0 0 800 500" width="800" height="500" font-family="'Noto Sans TC','Microsoft JhengHei','PingFang TC',sans-serif"><defs><filter id="sh" x="-10%" y="-10%" width="120%" height="130%"><feDropShadow dx="0" dy="6" stdDeviation="8" flood-color="#000" flood-opacity="0.28"/></filter><filter id="glow" x="-50%" y="-50%" width="200%" height="200%"><feGaussianBlur stdDeviation="6" result="b"/><feMerge><feMergeNode in="b"/><feMergeNode in="SourceGraphic"/></feMerge></filter></defs><rect x="0" y="36" width="800" height="464" rx="0" fill="#0b1220" /><rect x="0" y="0" width="800" height="36" rx="0" fill="#1f2937" /><circle cx="18" cy="18" r="6" fill="#ff5f57" /><circle cx="36" cy="18" r="6" fill="#febc2e" /><circle cx="54" cy="18" r="6" fill="#28c840" /><rect x="90" y="8" width="520" height="20" rx="10" fill="#111827" /><text x="106" y="22" font-size="11" fill="#9ca3af" font-weight="400" text-anchor="start" >🔒 admin.yourbrand.tw/products</text><rect x="0" y="36" width="160" height="464" rx="0" fill="#0f172a" /><circle cx="28" cy="66" r="10" fill="#22d3ee" /><text x="46" y="71" font-size="15" fill="#f1f5f9" font-weight="900" text-anchor="start" >營運後台</text><text x="28" y="106" font-size="13" fill="#64748b" font-weight="400" text-anchor="start" >總覽</text><text x="28" y="142" font-size="13" fill="#64748b" font-weight="400" text-anchor="start" >訂單管理</text><rect x="12" y="160" width="136" height="28" rx="6" fill="#1e293b" /><rect x="12" y="160" width="3" height="28" rx="0" fill="#22d3ee" /><text x="28" y="178" font-size="13" fill="#f1f5f9" font-weight="700" text-anchor="start" >商品管理</text><text x="28" y="214" font-size="13" fill="#64748b" font-weight="400" text-anchor="start" >會員分析</text><text x="28" y="250" font-size="13" fill="#64748b" font-weight="400" text-anchor="start" >行銷活動</text><text x="28" y="286" font-size="13" fill="#64748b" font-weight="400" text-anchor="start" >報表匯出</text><text x="28" y="322" font-size="13" fill="#64748b" font-weight="400" text-anchor="start" >系統設定</text><text x="180" y="74" font-size="18" fill="#f1f5f9" font-weight="900" text-anchor="start" >商品管理</text><rect x="560" y="58" width="96" height="28" rx="6" fill="#22d3ee" /><text x="608.0" y="75.96" font-size="11" fill="#0b1220" font-weight="700" text-anchor="middle" >+ 新增商品</text><rect x="664" y="58" width="106" height="28" rx="6" fill="#111a2e" stroke="#334155"/><text x="676" y="76" font-size="11" fill="#cbd5e1" font-weight="400" text-anchor="start" >全部分類 ▾</text><rect x="180" y="100" width="590" height="28" rx="4" fill="#111a2e" /><text x="190" y="118.0" font-size="11.5" fill="#94a3b8" font-weight="700" text-anchor="start" ></text><text x="238" y="118.0" font-size="11.5" fill="#94a3b8" font-weight="700" text-anchor="start" >商品名稱</text><text x="408" y="118.0" font-size="11.5" fill="#94a3b8" font-weight="700" text-anchor="start" >料號</text><text x="488" y="118.0" font-size="11.5" fill="#94a3b8" font-weight="700" text-anchor="start" >售價</text><text x="572" y="118.0" font-size="11.5" fill="#94a3b8" font-weight="700" text-anchor="start" >庫存</text><text x="682" y="118.0" font-size="11.5" fill="#94a3b8" font-weight="700" text-anchor="start" >上架</text><text x="736" y="118.0" font-size="11.5" fill="#94a3b8" font-weight="700" text-anchor="start" ></text><rect x="188" y="134.14" width="30" height="30" rx="6" fill="#f472b6" opacity="0.85"/><text x="238" y="154.1" font-size="11.5" fill="#e2e8f0" font-weight="400" text-anchor="start" >降噪藍牙耳機 Pro</text><text x="408" y="154.1" font-size="11.5" fill="#e2e8f0" font-weight="400" text-anchor="start" font-family="'JetBrains Mono',Consolas,'Courier New',monospace" >HP-001</text><text x="488" y="154.1" font-size="11.5" fill="#e2e8f0" font-weight="400" text-anchor="start" >NT$ 1,990</text><text x="572" y="154.14" font-size="11" fill="#22d3ee" font-weight="700" text-anchor="start" >128</text><rect x="606" y="148.14" width="50" height="5" rx="2.5" fill="#1e293b" /><rect x="606" y="148.14" width="42.7" height="5" rx="2.5" fill="#22d3ee" /><rect x="682" y="141.14" width="34" height="18" rx="9" fill="#22d3ee" /><circle cx="707" cy="150.14" r="7" fill="#fff" /><text x="734" y="154.14" font-size="11" fill="#22d3ee" font-weight="700" text-anchor="start" >編輯</text><line x1="180" y1="172" x2="770" y2="172" stroke="#1e293b" stroke-width="1" /><rect x="188" y="178.14" width="30" height="30" rx="6" fill="#38bdf8" opacity="0.85"/><text x="238" y="198.1" font-size="11.5" fill="#e2e8f0" font-weight="400" text-anchor="start" >智慧運動手錶 S2</text><text x="408" y="198.1" font-size="11.5" fill="#e2e8f0" font-weight="400" text-anchor="start" font-family="'JetBrains Mono',Consolas,'Courier New',monospace" >WT-002</text><text x="488" y="198.1" font-size="11.5" fill="#e2e8f0" font-weight="400" text-anchor="start" >NT$ 3,480</text><text x="572" y="198.14" font-size="11" fill="#22d3ee" font-weight="700" text-anchor="start" >42</text><rect x="606" y="192.14" width="50" height="5" rx="2.5" fill="#1e293b" /><rect x="606" y="192.14" width="14.0" height="5" rx="2.5" fill="#22d3ee" /><rect x="682" y="185.14" width="34" height="18" rx="9" fill="#22d3ee" /><circle cx="707" cy="194.14" r="7" fill="#fff" /><text x="734" y="198.14" font-size="11" fill="#22d3ee" font-weight="700" text-anchor="start" >編輯</text><line x1="180" y1="216" x2="770" y2="216" stroke="#1e293b" stroke-width="1" /><rect x="188" y="222.14" width="30" height="30" rx="6" fill="#a78bfa" opacity="0.85"/><text x="238" y="242.1" font-size="11.5" fill="#e2e8f0" font-weight="400" text-anchor="start" >輕量慢跑鞋 AirFlow</text><text x="408" y="242.1" font-size="11.5" fill="#e2e8f0" font-weight="400" text-anchor="start" font-family="'JetBrains Mono',Consolas,'Courier New',monospace" >SH-014</text><text x="488" y="242.1" font-size="11.5" fill="#e2e8f0" font-weight="400" text-anchor="start" >NT$ 1,680</text><text x="572" y="242.14" font-size="11" fill="#f87171" font-weight="700" text-anchor="start" >9</text><rect x="606" y="236.14" width="50" height="5" rx="2.5" fill="#1e293b" /><rect x="606" y="236.14" width="5" height="5" rx="2.5" fill="#f87171" /><rect x="682" y="229.14" width="34" height="18" rx="9" fill="#22d3ee" /><circle cx="707" cy="238.14" r="7" fill="#fff" /><text x="734" y="242.14" font-size="11" fill="#22d3ee" font-weight="700" text-anchor="start" >編輯</text><line x1="180" y1="260" x2="770" y2="260" stroke="#1e293b" stroke-width="1" /><rect x="188" y="266.14" width="30" height="30" rx="6" fill="#4ade80" opacity="0.85"/><text x="238" y="286.1" font-size="11.5" fill="#e2e8f0" font-weight="400" text-anchor="start" >療癒桌上型盆栽</text><text x="408" y="286.1" font-size="11.5" fill="#e2e8f0" font-weight="400" text-anchor="start" font-family="'JetBrains Mono',Consolas,'Courier New',monospace" >PL-031</text><text x="488" y="286.1" font-size="11.5" fill="#e2e8f0" font-weight="400" text-anchor="start" >NT$ 390</text><text x="572" y="286.14" font-size="11" fill="#22d3ee" font-weight="700" text-anchor="start" >260</text><rect x="606" y="280.14" width="50" height="5" rx="2.5" fill="#1e293b" /><rect x="606" y="280.14" width="50" height="5" rx="2.5" fill="#22d3ee" /><rect x="682" y="273.14" width="34" height="18" rx="9" fill="#22d3ee" /><circle cx="707" cy="282.14" r="7" fill="#fff" /><text x="734" y="286.14" font-size="11" fill="#22d3ee" font-weight="700" text-anchor="start" >編輯</text><line x1="180" y1="304" x2="770" y2="304" stroke="#1e293b" stroke-width="1" /><rect x="188" y="310.14" width="30" height="30" rx="6" fill="#fb923c" opacity="0.85"/><text x="238" y="330.1" font-size="11.5" fill="#e2e8f0" font-weight="400" text-anchor="start" >頭戴式耳機 Studio</text><text x="408" y="330.1" font-size="11.5" fill="#e2e8f0" font-weight="400" text-anchor="start" font-family="'JetBrains Mono',Consolas,'Courier New',monospace" >HP-007</text><text x="488" y="330.1" font-size="11.5" fill="#e2e8f0" font-weight="400" text-anchor="start" >NT$ 3,190</text><text x="572" y="330.14" font-size="11" fill="#f87171" font-weight="700" text-anchor="start" >0</text><rect x="606" y="324.14" width="50" height="5" rx="2.5" fill="#1e293b" /><rect x="606" y="324.14" width="5" height="5" rx="2.5" fill="#f87171" /><rect x="682" y="317.14" width="34" height="18" rx="9" fill="#cbd5e1" /><circle cx="691" cy="326.14" r="7" fill="#fff" /><text x="734" y="330.14" font-size="11" fill="#22d3ee" font-weight="700" text-anchor="start" >編輯</text><line x1="180" y1="348" x2="770" y2="348" stroke="#1e293b" stroke-width="1" /><rect x="188" y="354.14" width="30" height="30" rx="6" fill="#facc15" opacity="0.85"/><text x="238" y="374.1" font-size="11.5" fill="#e2e8f0" font-weight="400" text-anchor="start" >無線充電盤</text><text x="408" y="374.1" font-size="11.5" fill="#e2e8f0" font-weight="400" text-anchor="start" font-family="'JetBrains Mono',Consolas,'Courier New',monospace" >AC-120</text><text x="488" y="374.1" font-size="11.5" fill="#e2e8f0" font-weight="400" text-anchor="start" >NT$ 690</text><text x="572" y="374.14" font-size="11" fill="#22d3ee" font-weight="700" text-anchor="start" >75</text><rect x="606" y="368.14" width="50" height="5" rx="2.5" fill="#1e293b" /><rect x="606" y="368.14" width="25.0" height="5" rx="2.5" fill="#22d3ee" /><rect x="682" y="361.14" width="34" height="18" rx="9" fill="#22d3ee" /><circle cx="707" cy="370.14" r="7" fill="#fff" /><text x="734" y="374.14" font-size="11" fill="#22d3ee" font-weight="700" text-anchor="start" >編輯</text><line x1="180" y1="392" x2="770" y2="392" stroke="#1e293b" stroke-width="1" /><rect x="188" y="398.14" width="30" height="30" rx="6" fill="#2dd4bf" opacity="0.85"/><text x="238" y="418.1" font-size="11.5" fill="#e2e8f0" font-weight="400" text-anchor="start" >保溫隨行杯</text><text x="408" y="418.1" font-size="11.5" fill="#e2e8f0" font-weight="400" text-anchor="start" font-family="'JetBrains Mono',Consolas,'Courier New',monospace" >LF-210</text><text x="488" y="418.1" font-size="11.5" fill="#e2e8f0" font-weight="400" text-anchor="start" >NT$ 520</text><text x="572" y="418.14" font-size="11" fill="#f87171" font-weight="700" text-anchor="start" >18</text><rect x="606" y="412.14" width="50" height="5" rx="2.5" fill="#1e293b" /><rect x="606" y="412.14" width="6.0" height="5" rx="2.5" fill="#f87171" /><rect x="682" y="405.14" width="34" height="18" rx="9" fill="#22d3ee" /><circle cx="707" cy="414.14" r="7" fill="#fff" /><text x="734" y="418.14" font-size="11" fill="#22d3ee" font-weight="700" text-anchor="start" >編輯</text><line x1="180" y1="436" x2="770" y2="436" stroke="#1e293b" stroke-width="1" /><rect x="188" y="442.14" width="30" height="30" rx="6" fill="#f87171" opacity="0.85"/><text x="238" y="462.1" font-size="11.5" fill="#e2e8f0" font-weight="400" text-anchor="start" >藍牙喇叭 Mini</text><text x="408" y="462.1" font-size="11.5" fill="#e2e8f0" font-weight="400" text-anchor="start" font-family="'JetBrains Mono',Consolas,'Courier New',monospace" >SP-033</text><text x="488" y="462.1" font-size="11.5" fill="#e2e8f0" font-weight="400" text-anchor="start" >NT$ 1,290</text><text x="572" y="462.14" font-size="11" fill="#22d3ee" font-weight="700" text-anchor="start" >56</text><rect x="606" y="456.14" width="50" height="5" rx="2.5" fill="#1e293b" /><rect x="606" y="456.14" width="18.7" height="5" rx="2.5" fill="#22d3ee" /><rect x="682" y="449.14" width="34" height="18" rx="9" fill="#cbd5e1" /><circle cx="691" cy="458.14" r="7" fill="#fff" /><text x="734" y="462.14" font-size="11" fill="#22d3ee" font-weight="700" text-anchor="start" >編輯</text><line x1="180" y1="480" x2="770" y2="480" stroke="#1e293b" stroke-width="1" /></svg>
