<svg xmlns="http://www.w3.org/2000/svg" viewBox="0 0 800 500" width="800" height="500" font-family="'Noto Sans TC','Microsoft JhengHei','PingFang TC',sans-serif"><defs><filter id="sh" x="-10%" y="-10%" width="120%" height="130%"><feDropShadow dx="0" dy="6" stdDeviation="8" flood-color="#000" flood-opacity="0.28"/></filter><filter id="glow" x="-50%" y="-50%" width="200%" height="200%"><feGaussianBlur stdDeviation="6" result="b"/><feMerge><feMergeNode in="b"/><feMergeNode in="SourceGraphic"/></feMerge></filter><linearGradient id="hall" x1="0" y1="0" x2="0" y2="1"><stop offset="0" stop-color="#451a03" stop-opacity="1"/><stop offset="1" stop-color="#1c0a03" stop-opacity="1"/></linearGradient><linearGradient id="light" x1="0" y1="0" x2="0" y2="1"><stop offset="0" stop-color="#fef3c7" stop-opacity="0.55"/><stop offset="1" stop-color="#fef3c7" stop-opacity="0"/></linearGradient></defs><rect x="0" y="0" width="800" height="500" rx="0" fill="url(#hall)" /><rect x="98" y="40" width="44" height="320" rx="0" fill="#78350f" /><rect x="92" y="40" width="56" height="16" rx="0" fill="#92400e" /><rect x="92" y="344" width="56" height="16" rx="0" fill="#92400e" /><rect x="308" y="40" width="44" height="320" rx="0" fill="#78350f" /><rect x="302" y="40" width="56" height="16" rx="0" fill="#92400e" /><rect x="302" y="344" width="56" height="16" rx="0" fill="#92400e" /><rect x="448" y="40" width="44" height="320" rx="0" fill="#78350f" /><rect x="442" y="40" width="56" height="16" rx="0" fill="#92400e" /><rect x="442" y="344" width="56" height="16" rx="0" fill="#92400e" /><rect x="658" y="40" width="44" height="320" rx="0" fill="#78350f" /><rect x="652" y="40" width="56" height="16" rx="0" fill="#92400e" /><rect x="652" y="344" width="56" height="16" rx="0" fill="#92400e" /><path d="M185 230 V110 a40 40 0 0 1 80 0 V230z" fill="#fde68a" opacity="0.75"/><path d="M185 230 L145 360 H305 L265 230z" fill="url(#light)" /><path d="M535 230 V110 a40 40 0 0 1 80 0 V230z" fill="#fde68a" opacity="0.75"/><path d="M535 230 L495 360 H655 L615 230z" fill="url(#light)" /><path d="M340 360 L460 360 L560 500 L240 500Z" fill="#991b1b" /><path d="M352 360 L448 360 L530 500 L270 500Z" fill="none" stroke="#fbbf24" stroke-width="3"/><rect x="370" y="200" width="60" height="90" rx="6" fill="#a16207" /><rect x="360" y="186" width="80" height="22" rx="6" fill="#ca8a04" /><rect x="0" y="0" width="800" height="500" rx="0" fill="#000" opacity="0.15"/><g opacity="0.55"><g transform="translate(170 250) scale(2.3)"><path d="M-46 70 q4 -38 46 -42 q42 4 46 42z" fill="#1e40af" /><path d="M-12 28 l12 16 l12 -16" fill="none" stroke="#fbbf24" stroke-width="3"/><rect x="-8" y="14" width="16" height="16" rx="4" fill="#f6d2b3" /><ellipse cx="0" cy="-4" rx="23" ry="27" fill="#f6d2b3"/><ellipse cx="-9" cy="-2" rx="3" ry="4" fill="#1f2937"/><ellipse cx="9" cy="-2" rx="3" ry="4" fill="#1f2937"/><path d="M-5 12 q5 4 10 0" fill="none" stroke="#9a3412" stroke-width="2" stroke-linecap="round"/><path d="M-25 -2 q0 -40 25 -40 q27 0 25 40 q-6 -20 -25 -22 q-17 2 -25 22z" fill="#b45309" /></g></g><g transform="translate(630 240) scale(2.4)"><path d="M-46 70 q4 -38 46 -42 q42 4 46 42z" fill="#9d174d" /><path d="M-12 28 l12 16 l12 -16" fill="none" stroke="#fbbf24" stroke-width="3"/><rect x="-8" y="14" width="16" height="16" rx="4" fill="#fbe2cf" /><ellipse cx="0" cy="-4" rx="23" ry="27" fill="#fbe2cf"/><ellipse cx="-9" cy="-2" rx="3" ry="4" fill="#1f2937"/><ellipse cx="9" cy="-2" rx="3" ry="4" fill="#1f2937"/><path d="M-5 12 q5 4 10 0" fill="none" stroke="#9a3412" stroke-width="2" stroke-linecap="round"/><path d="M-27 30 v-34 q0 -40 27 -40 q29 0 27 40 v34 h-9 v-40 q-8 -14 -18 -16 q-10 2 -18 16 v40z" fill="#f8e7a8" /></g><path d="M606 140 l8 -18 l8 12 l8 -16 l8 16 l8 -12 l8 18z" fill="#fbbf24" transform="translate(-6 -14)"/><rect x="0" y="0" width="800" height="36" rx="0" fill="#000" opacity="0.35"/><text x="776" y="24" font-size="11.5" fill="#e5e7eb" font-weight="700" text-anchor="end" >自動　快進　紀錄　選單</text><g filter="url(#sh)"><rect x="30" y="352" width="740" height="132" rx="14" fill="#0b1120" /></g><rect x="30" y="352" width="740" height="132" rx="14" fill="none" stroke="#fbbf24" stroke-width="2" stroke-opacity="0.7"/><rect x="52" y="334" width="120" height="32" rx="8" fill="#9d174d" stroke="#fbbf24" stroke-width="2"/><text x="112" y="356" font-size="15" fill="#fff" font-weight="900" text-anchor="middle" >莉雅公主</text><text x="60" y="400" font-size="17" fill="#f8fafc" font-weight="500" text-anchor="start" >艾倫，北方的要塞已經失守了……</text><text x="60" y="432" font-size="17" fill="#f8fafc" font-weight="500" text-anchor="start" >我們必須在敵軍抵達王都之前，找到傳說中的聖劍。</text><text x="746" y="468" font-size="14" fill="#fbbf24" font-weight="900" text-anchor="end" >▼</text><rect x="410" y="230" width="360" height="40" rx="8" fill="#1e3a8a" opacity="0.92" stroke="#fbbf24" stroke-width="2"/><text x="590" y="256" font-size="13" fill="#fff" font-weight="700" text-anchor="middle" >「交給我吧，公主。我一定會找到它。」</text><rect x="410" y="280" width="360" height="40" rx="8" fill="#0b1120" opacity="0.92" stroke="#475569" stroke-width="2"/><text x="590" y="306" font-size="13" fill="#cbd5e1" font-weight="400" text-anchor="middle" >「這太危險了，請讓我先派人偵查。」</text></svg>
