<svg xmlns="http://www.w3.org/2000/svg" viewBox="0 0 800 500" width="800" height="500" font-family="'Noto Sans TC','Microsoft JhengHei','PingFang TC',sans-serif"><defs><filter id="sh" x="-10%" y="-10%" width="120%" height="130%"><feDropShadow dx="0" dy="6" stdDeviation="8" flood-color="#000" flood-opacity="0.28"/></filter><filter id="glow" x="-50%" y="-50%" width="200%" height="200%"><feGaussianBlur stdDeviation="6" result="b"/><feMerge><feMergeNode in="b"/><feMergeNode in="SourceGraphic"/></feMerge></filter></defs><rect x="0" y="0" width="800" height="500" rx="0" fill="#e7ecef" /><g filter="url(#sh)"><rect x="16" y="16" width="768" height="468" rx="8" fill="#fff" /></g><rect x="16" y="16" width="768" height="30" rx="8" fill="#217346" /><rect x="16" y="36" width="768" height="10" rx="0" fill="#217346" /><text x="400.0" y="36" font-size="12" fill="#fff" font-weight="500" text-anchor="middle" >月報表_2026-09.xlsx - Excel</text><rect x="16" y="46" width="768" height="30" rx="0" fill="#f3f3f3" /><text x="32" y="66" font-size="11" fill="#217346" font-weight="700" text-anchor="start" >常用</text><text x="90" y="66" font-size="11" fill="#444" font-weight="400" text-anchor="start" >插入</text><text x="148" y="66" font-size="11" fill="#444" font-weight="400" text-anchor="start" >版面配置</text><text x="206" y="66" font-size="11" fill="#444" font-weight="400" text-anchor="start" >公式</text><text x="264" y="66" font-size="11" fill="#444" font-weight="400" text-anchor="start" >資料</text><text x="322" y="66" font-size="11" fill="#444" font-weight="400" text-anchor="start" >檢視</text><rect x="16" y="458" width="768" height="26" rx="0" fill="#f3f3f3" /><rect x="26" y="461" width="68" height="20" rx="2" fill="#f3f3f3" /><text x="60" y="475" font-size="10" fill="#666" font-weight="400" text-anchor="middle" >總表</text><rect x="100" y="461" width="68" height="20" rx="2" fill="#f3f3f3" /><text x="134" y="475" font-size="10" fill="#666" font-weight="400" text-anchor="middle" >業務部</text><rect x="174" y="461" width="68" height="20" rx="2" fill="#f3f3f3" /><text x="208" y="475" font-size="10" fill="#666" font-weight="400" text-anchor="middle" >行銷部</text><rect x="248" y="461" width="68" height="20" rx="2" fill="#fff" /><text x="282" y="475" font-size="10" fill="#217346" font-weight="700" text-anchor="middle" >圖表</text><rect x="16" y="76" width="768" height="382" rx="0" fill="#f7f7f7" /><rect x="32" y="88" width="176" height="64" rx="4" fill="#fff" stroke="#d9d9d9"/><rect x="32" y="88" width="4" height="64" rx="0" fill="#217346" /><text x="48" y="110" font-size="11" fill="#666" font-weight="400" text-anchor="start" >本月總業績</text><text x="48" y="138" font-size="20" fill="#217346" font-weight="900" text-anchor="start" >11,070,000</text><rect x="218" y="88" width="176" height="64" rx="4" fill="#fff" stroke="#d9d9d9"/><rect x="218" y="88" width="4" height="64" rx="0" fill="#2563eb" /><text x="234" y="110" font-size="11" fill="#666" font-weight="400" text-anchor="start" >整體達成率</text><text x="234" y="138" font-size="20" fill="#2563eb" font-weight="900" text-anchor="start" >104.4%</text><rect x="404" y="88" width="176" height="64" rx="4" fill="#fff" stroke="#d9d9d9"/><rect x="404" y="88" width="4" height="64" rx="0" fill="#7c3aed" /><text x="420" y="110" font-size="11" fill="#666" font-weight="400" text-anchor="start" >年成長率</text><text x="420" y="138" font-size="20" fill="#7c3aed" font-weight="900" text-anchor="start" >+8.2%</text><rect x="590" y="88" width="176" height="64" rx="4" fill="#fff" stroke="#d9d9d9"/><rect x="590" y="88" width="4" height="64" rx="0" fill="#d97706" /><text x="606" y="110" font-size="11" fill="#666" font-weight="400" text-anchor="start" >達標部門</text><text x="606" y="138" font-size="20" fill="#d97706" font-weight="900" text-anchor="start" >7 / 10</text><rect x="32" y="164" width="440" height="282" rx="4" fill="#fff" stroke="#d9d9d9"/><text x="48" y="188" font-size="12" fill="#222" font-weight="700" text-anchor="start" >月業績趨勢（萬元）</text><line x1="64" y1="204.0" x2="456" y2="204.0" stroke="#eee" stroke-width="1" /><line x1="64" y1="254.0" x2="456" y2="254.0" stroke="#eee" stroke-width="1" /><line x1="64" y1="304.0" x2="456" y2="304.0" stroke="#eee" stroke-width="1" /><line x1="64" y1="354.0" x2="456" y2="354.0" stroke="#eee" stroke-width="1" /><line x1="64" y1="404.0" x2="456" y2="404.0" stroke="#eee" stroke-width="1" /><polyline points="64.0,350.7 107.6,332.9 151.1,310.7 194.7,324.0 238.2,292.9 281.8,275.1 325.3,266.2 368.9,284.0 412.4,244.0 456.0,223.1" fill="none" stroke="#217346" stroke-width="2.5" stroke-linejoin="round"/><circle cx="64.0" cy="350.7" r="3" fill="#217346" stroke="#fff" stroke-width="1.5"/><circle cx="107.6" cy="332.9" r="3" fill="#217346" stroke="#fff" stroke-width="1.5"/><circle cx="151.1" cy="310.7" r="3" fill="#217346" stroke="#fff" stroke-width="1.5"/><circle cx="194.7" cy="324.0" r="3" fill="#217346" stroke="#fff" stroke-width="1.5"/><circle cx="238.2" cy="292.9" r="3" fill="#217346" stroke="#fff" stroke-width="1.5"/><circle cx="281.8" cy="275.1" r="3" fill="#217346" stroke="#fff" stroke-width="1.5"/><circle cx="325.3" cy="266.2" r="3" fill="#217346" stroke="#fff" stroke-width="1.5"/><circle cx="368.9" cy="284.0" r="3" fill="#217346" stroke="#fff" stroke-width="1.5"/><circle cx="412.4" cy="244.0" r="3" fill="#217346" stroke="#fff" stroke-width="1.5"/><circle cx="456.0" cy="223.1" r="3" fill="#217346" stroke="#fff" stroke-width="1.5"/><polyline points="64.0,368.4 107.6,359.6 151.1,350.7 194.7,341.8 238.2,332.9 281.8,324.0 325.3,315.1 368.9,306.2 412.4,297.3 456.0,288.4" fill="none" stroke="#f59e0b" stroke-width="1.8" stroke-linejoin="round" stroke-dasharray="5 4"/><text x="64.0" y="424" font-size="9" fill="#888" font-weight="400" text-anchor="middle" >1月</text><text x="107.6" y="424" font-size="9" fill="#888" font-weight="400" text-anchor="middle" >2月</text><text x="151.1" y="424" font-size="9" fill="#888" font-weight="400" text-anchor="middle" >3月</text><text x="194.7" y="424" font-size="9" fill="#888" font-weight="400" text-anchor="middle" >4月</text><text x="238.2" y="424" font-size="9" fill="#888" font-weight="400" text-anchor="middle" >5月</text><text x="281.8" y="424" font-size="9" fill="#888" font-weight="400" text-anchor="middle" >6月</text><text x="325.3" y="424" font-size="9" fill="#888" font-weight="400" text-anchor="middle" >7月</text><text x="368.9" y="424" font-size="9" fill="#888" font-weight="400" text-anchor="middle" >8月</text><text x="412.4" y="424" font-size="9" fill="#888" font-weight="400" text-anchor="middle" >9月</text><text x="456.0" y="424" font-size="9" fill="#888" font-weight="400" text-anchor="middle" >10月</text><rect x="64" y="432" width="10" height="3" rx="0" fill="#217346" /><text x="80" y="437" font-size="9.5" fill="#666" font-weight="400" text-anchor="start" >實際</text><rect x="120" y="432" width="10" height="3" rx="0" fill="#f59e0b" /><text x="136" y="437" font-size="9.5" fill="#666" font-weight="400" text-anchor="start" >目標</text><rect x="488" y="164" width="280" height="136" rx="4" fill="#fff" stroke="#d9d9d9"/><text x="504" y="188" font-size="12" fill="#222" font-weight="700" text-anchor="start" >業績佔比</text><circle cx="560" cy="240" r="36" fill="none" stroke="#217346" stroke-width="18" stroke-dasharray="70.1 226.2" stroke-dashoffset="-0.0" transform="rotate(-90 560 240)"/><circle cx="560" cy="240" r="36" fill="none" stroke="#2563eb" stroke-width="18" stroke-dasharray="49.8 226.2" stroke-dashoffset="-70.1" transform="rotate(-90 560 240)"/><circle cx="560" cy="240" r="36" fill="none" stroke="#7c3aed" stroke-width="18" stroke-dasharray="40.7 226.2" stroke-dashoffset="-119.9" transform="rotate(-90 560 240)"/><circle cx="560" cy="240" r="36" fill="none" stroke="#f59e0b" stroke-width="18" stroke-dasharray="33.9 226.2" stroke-dashoffset="-160.6" transform="rotate(-90 560 240)"/><circle cx="560" cy="240" r="36" fill="none" stroke="#94a3b8" stroke-width="18" stroke-dasharray="31.7 226.2" stroke-dashoffset="-194.5" transform="rotate(-90 560 240)"/><rect x="620" y="198" width="8" height="8" rx="1" fill="#217346" /><text x="634" y="206" font-size="10" fill="#444" font-weight="400" text-anchor="start" >業務部</text><text x="752" y="206" font-size="10" fill="#222" font-weight="700" text-anchor="end" >31%</text><rect x="620" y="216" width="8" height="8" rx="1" fill="#2563eb" /><text x="634" y="224" font-size="10" fill="#444" font-weight="400" text-anchor="start" >電商部</text><text x="752" y="224" font-size="10" fill="#222" font-weight="700" text-anchor="end" >22%</text><rect x="620" y="234" width="8" height="8" rx="1" fill="#7c3aed" /><text x="634" y="242" font-size="10" fill="#444" font-weight="400" text-anchor="start" >企業客戶</text><text x="752" y="242" font-size="10" fill="#222" font-weight="700" text-anchor="end" >18%</text><rect x="620" y="252" width="8" height="8" rx="1" fill="#f59e0b" /><text x="634" y="260" font-size="10" fill="#444" font-weight="400" text-anchor="start" >行銷部</text><text x="752" y="260" font-size="10" fill="#222" font-weight="700" text-anchor="end" >15%</text><rect x="620" y="270" width="8" height="8" rx="1" fill="#94a3b8" /><text x="634" y="278" font-size="10" fill="#444" font-weight="400" text-anchor="start" >其他</text><text x="752" y="278" font-size="10" fill="#222" font-weight="700" text-anchor="end" >14%</text><rect x="488" y="312" width="280" height="134" rx="4" fill="#fff" stroke="#d9d9d9"/><text x="504" y="334" font-size="12" fill="#222" font-weight="700" text-anchor="start" >部門達成率</text><text x="504" y="356" font-size="10" fill="#444" font-weight="400" text-anchor="start" >企業客戶</text><rect x="566" y="347" width="127.7" height="11" rx="2" fill="#217346" /><text x="752" y="356" font-size="10" fill="#217346" font-weight="700" text-anchor="end" >115.5%</text><text x="504" y="374" font-size="10" fill="#444" font-weight="400" text-anchor="start" >業務三部</text><rect x="566" y="365" width="118.5" height="11" rx="2" fill="#217346" /><text x="752" y="374" font-size="10" fill="#217346" font-weight="700" text-anchor="end" >111.5%</text><text x="504" y="392" font-size="10" fill="#444" font-weight="400" text-anchor="start" >客服加值</text><rect x="566" y="383" width="119.6" height="11" rx="2" fill="#217346" /><text x="752" y="392" font-size="10" fill="#217346" font-weight="700" text-anchor="end" >112.0%</text><text x="504" y="410" font-size="10" fill="#444" font-weight="400" text-anchor="start" >業務二部</text><rect x="566" y="401" width="66.9" height="11" rx="2" fill="#ef4444" /><text x="752" y="410" font-size="10" fill="#ef4444" font-weight="700" text-anchor="end" >89.1%</text><text x="504" y="428" font-size="10" fill="#444" font-weight="400" text-anchor="start" >通路部</text><rect x="566" y="419" width="56.8" height="11" rx="2" fill="#ef4444" /><text x="752" y="428" font-size="10" fill="#ef4444" font-weight="700" text-anchor="end" >84.7%</text></svg>
