<svg xmlns="http://www.w3.org/2000/svg" viewBox="0 0 800 500" width="800" height="500" font-family="'Noto Sans TC','Microsoft JhengHei','PingFang TC',sans-serif"><defs><filter id="sh" x="-10%" y="-10%" width="120%" height="130%"><feDropShadow dx="0" dy="6" stdDeviation="8" flood-color="#000" flood-opacity="0.28"/></filter><filter id="glow" x="-50%" y="-50%" width="200%" height="200%"><feGaussianBlur stdDeviation="6" result="b"/><feMerge><feMergeNode in="b"/><feMergeNode in="SourceGraphic"/></feMerge></filter><linearGradient id="sea" x1="0" y1="0" x2="0" y2="1"><stop offset="0" stop-color="#38bdf8" stop-opacity="1"/><stop offset="1" stop-color="#0369a1" stop-opacity="1"/></linearGradient></defs><rect x="0" y="0" width="800" height="500" rx="0" fill="url(#sea)" /><path d="M637 170 q6 -5 12 0 q6 5 12 0" fill="none" stroke="#e0f2fe" stroke-width="2" opacity="0.5"/><path d="M759 223 q6 -5 12 0 q6 5 12 0" fill="none" stroke="#e0f2fe" stroke-width="2" opacity="0.5"/><path d="M707 470 q6 -5 12 0 q6 5 12 0" fill="none" stroke="#e0f2fe" stroke-width="2" opacity="0.5"/><path d="M757 373 q6 -5 12 0 q6 5 12 0" fill="none" stroke="#e0f2fe" stroke-width="2" opacity="0.5"/><path d="M542 54 q6 -5 12 0 q6 5 12 0" fill="none" stroke="#e0f2fe" stroke-width="2" opacity="0.5"/><path d="M476 437 q6 -5 12 0 q6 5 12 0" fill="none" stroke="#e0f2fe" stroke-width="2" opacity="0.5"/><path d="M255 372 q6 -5 12 0 q6 5 12 0" fill="none" stroke="#e0f2fe" stroke-width="2" opacity="0.5"/><path d="M53 120 q6 -5 12 0 q6 5 12 0" fill="none" stroke="#e0f2fe" stroke-width="2" opacity="0.5"/><path d="M115 230 q6 -5 12 0 q6 5 12 0" fill="none" stroke="#e0f2fe" stroke-width="2" opacity="0.5"/><path d="M480 484 q6 -5 12 0 q6 5 12 0" fill="none" stroke="#e0f2fe" stroke-width="2" opacity="0.5"/><path d="M252 234 q6 -5 12 0 q6 5 12 0" fill="none" stroke="#e0f2fe" stroke-width="2" opacity="0.5"/><path d="M556 92 q6 -5 12 0 q6 5 12 0" fill="none" stroke="#e0f2fe" stroke-width="2" opacity="0.5"/><path d="M587 167 q6 -5 12 0 q6 5 12 0" fill="none" stroke="#e0f2fe" stroke-width="2" opacity="0.5"/><path d="M13 414 q6 -5 12 0 q6 5 12 0" fill="none" stroke="#e0f2fe" stroke-width="2" opacity="0.5"/><path d="M221 248 q6 -5 12 0 q6 5 12 0" fill="none" stroke="#e0f2fe" stroke-width="2" opacity="0.5"/><path d="M286 133 q6 -5 12 0 q6 5 12 0" fill="none" stroke="#e0f2fe" stroke-width="2" opacity="0.5"/><path d="M398 121 q6 -5 12 0 q6 5 12 0" fill="none" stroke="#e0f2fe" stroke-width="2" opacity="0.5"/><path d="M780 448 q6 -5 12 0 q6 5 12 0" fill="none" stroke="#e0f2fe" stroke-width="2" opacity="0.5"/><path d="M73 111 q6 -5 12 0 q6 5 12 0" fill="none" stroke="#e0f2fe" stroke-width="2" opacity="0.5"/><path d="M632 356 q6 -5 12 0 q6 5 12 0" fill="none" stroke="#e0f2fe" stroke-width="2" opacity="0.5"/><path d="M455 104 q6 -5 12 0 q6 5 12 0" fill="none" stroke="#e0f2fe" stroke-width="2" opacity="0.5"/><path d="M135 40 q6 -5 12 0 q6 5 12 0" fill="none" stroke="#e0f2fe" stroke-width="2" opacity="0.5"/><path d="M5 147 q6 -5 12 0 q6 5 12 0" fill="none" stroke="#e0f2fe" stroke-width="2" opacity="0.5"/><path d="M220 124 q6 -5 12 0 q6 5 12 0" fill="none" stroke="#e0f2fe" stroke-width="2" opacity="0.5"/><path d="M170 188 q6 -5 12 0 q6 5 12 0" fill="none" stroke="#e0f2fe" stroke-width="2" opacity="0.5"/><path d="M321 141 q6 -5 12 0 q6 5 12 0" fill="none" stroke="#e0f2fe" stroke-width="2" opacity="0.5"/><ellipse cx="230" cy="300" rx="210" ry="150" fill="#fde68a"/><ellipse cx="230" cy="296" rx="196" ry="138" fill="#86efac"/><ellipse cx="600" cy="230" rx="170" ry="130" fill="#fde68a"/><ellipse cx="600" cy="226" rx="156" ry="118" fill="#4ade80"/><ellipse cx="660" cy="420" rx="90" ry="50" fill="#fde68a"/><ellipse cx="660" cy="416" rx="80" ry="42" fill="#a3a3a3"/><path d="M120 230 l14 -28 l14 28z" fill="#15803d" /><rect x="132" y="230" width="4" height="8" rx="0" fill="#78350f" /><path d="M330 360 l14 -28 l14 28z" fill="#15803d" /><rect x="342" y="360" width="4" height="8" rx="0" fill="#78350f" /><path d="M520 160 l14 -28 l14 28z" fill="#15803d" /><rect x="532" y="160" width="4" height="8" rx="0" fill="#78350f" /><path d="M700 280 l14 -28 l14 28z" fill="#15803d" /><rect x="712" y="280" width="4" height="8" rx="0" fill="#78350f" /><path d="M180 380 l14 -28 l14 28z" fill="#15803d" /><rect x="192" y="380" width="4" height="8" rx="0" fill="#78350f" /><polyline points="110,330 200,260 300,300 380,210 470,250 560,180 650,260 660,400" fill="none" stroke="#fff" stroke-width="5" stroke-dasharray="2 10" stroke-linecap="round"/><circle cx="110" cy="330" r="17" fill="#22c55e" stroke="#1b1b3a" stroke-width="3"/><text x="110" y="335" font-size="11" fill="#1b1b3a" font-weight="900" text-anchor="middle" font-family="'JetBrains Mono',Consolas,'Courier New',monospace" >1-1</text><text x="110" y="306" font-size="12" fill="#facc15" font-weight="900" text-anchor="middle" stroke="#1b1b3a" stroke-width="2" paint-order="stroke">★★★</text><circle cx="200" cy="260" r="17" fill="#22c55e" stroke="#1b1b3a" stroke-width="3"/><text x="200" y="265" font-size="11" fill="#1b1b3a" font-weight="900" text-anchor="middle" font-family="'JetBrains Mono',Consolas,'Courier New',monospace" >1-2</text><text x="200" y="236" font-size="12" fill="#facc15" font-weight="900" text-anchor="middle" stroke="#1b1b3a" stroke-width="2" paint-order="stroke">★★★</text><circle cx="300" cy="300" r="17" fill="#22c55e" stroke="#1b1b3a" stroke-width="3"/><text x="300" y="305" font-size="11" fill="#1b1b3a" font-weight="900" text-anchor="middle" font-family="'JetBrains Mono',Consolas,'Courier New',monospace" >1-3</text><text x="300" y="276" font-size="12" fill="#facc15" font-weight="900" text-anchor="middle" stroke="#1b1b3a" stroke-width="2" paint-order="stroke">★★☆</text><circle cx="380" cy="210" r="17" fill="#22c55e" stroke="#1b1b3a" stroke-width="3"/><text x="380" y="215" font-size="11" fill="#1b1b3a" font-weight="900" text-anchor="middle" font-family="'JetBrains Mono',Consolas,'Courier New',monospace" >1-4</text><text x="380" y="186" font-size="12" fill="#facc15" font-weight="900" text-anchor="middle" stroke="#1b1b3a" stroke-width="2" paint-order="stroke">★★★</text><circle cx="470" cy="250" r="20" fill="#ffd23f" stroke="#1b1b3a" stroke-width="3"/><text x="470" y="255" font-size="11" fill="#1b1b3a" font-weight="900" text-anchor="middle" font-family="'JetBrains Mono',Consolas,'Courier New',monospace" >1-5</text><circle cx="560" cy="180" r="17" fill="#9ca3af" stroke="#1b1b3a" stroke-width="3"/><text x="560" y="185" font-size="11" fill="#1b1b3a" font-weight="900" text-anchor="middle" font-family="'JetBrains Mono',Consolas,'Courier New',monospace" >1-6</text><rect x="554" y="176" width="12" height="10" rx="2" fill="#1b1b3a" /><path d="M556 176 v-4 a4 4 0 0 1 8 0 v4" fill="none" stroke="#1b1b3a" stroke-width="2"/><circle cx="650" cy="260" r="17" fill="#9ca3af" stroke="#1b1b3a" stroke-width="3"/><text x="650" y="265" font-size="11" fill="#1b1b3a" font-weight="900" text-anchor="middle" font-family="'JetBrains Mono',Consolas,'Courier New',monospace" >1-7</text><rect x="644" y="256" width="12" height="10" rx="2" fill="#1b1b3a" /><path d="M646 256 v-4 a4 4 0 0 1 8 0 v4" fill="none" stroke="#1b1b3a" stroke-width="2"/><rect x="634" y="366" width="52" height="40" rx="3" fill="#57534e" stroke="#1b1b3a" stroke-width="3"/><rect x="634" y="356" width="9" height="12" rx="1" fill="#57534e" stroke="#1b1b3a" stroke-width="2"/><rect x="647" y="356" width="9" height="12" rx="1" fill="#57534e" stroke="#1b1b3a" stroke-width="2"/><rect x="660" y="356" width="9" height="12" rx="1" fill="#57534e" stroke="#1b1b3a" stroke-width="2"/><rect x="673" y="356" width="9" height="12" rx="1" fill="#57534e" stroke="#1b1b3a" stroke-width="2"/><rect x="653" y="386" width="14" height="20" rx="6" fill="#1b1b3a" /><text x="660" y="426" font-size="13" fill="#f87171" font-weight="900" text-anchor="middle" font-family="'JetBrains Mono',Consolas,'Courier New',monospace" stroke="#1b1b3a" stroke-width="4" paint-order="stroke" stroke-linejoin="round">BOSS</text><circle cx="470" cy="250" r="30" fill="#ffd23f" opacity="0.35"/><g transform="translate(470 230) scale(0.9)"><rect x="-12" y="-46" width="24" height="20" rx="4" fill="#ffcc99" /><circle cx="5" cy="-38" r="2.5" fill="#222" /><rect x="-14" y="-26" width="28" height="22" rx="4" fill="#e53935" /><rect x="-14" y="-14" width="28" height="8" rx="2" fill="#1e40af" /><rect x="-14" y="-6" width="11" height="6" rx="2" fill="#1e40af" /><rect x="3" y="-6" width="11" height="6" rx="2" fill="#1e40af" /><rect x="14" y="-24" width="9" height="8" rx="3" fill="#ffcc99" /><rect x="-14" y="-52" width="30" height="10" rx="3" fill="#e53935" /></g><rect x="16" y="16" width="230" height="56" rx="12" fill="#ffffff" stroke="#1b1b3a" stroke-width="3"/><text x="32" y="40" font-size="13" fill="#64748b" font-weight="900" text-anchor="start" >世界 1</text><text x="32" y="62" font-size="18" fill="#1b1b3a" font-weight="900" text-anchor="start" >青草平原</text><text x="232" y="52" font-size="14" fill="#ca8a04" font-weight="900" text-anchor="end" >★ 11 / 21</text><rect x="552" y="16" width="232" height="40" rx="12" fill="#ffffff" stroke="#1b1b3a" stroke-width="3"/><ellipse cx="574" cy="36" rx="9" ry="11" fill="#ffd23f" stroke="#e09b00" stroke-width="2.5"/><rect x="572" y="30" width="4" height="12" rx="2" fill="#e09b00"/><text x="592" y="42" font-size="15" fill="#1b1b3a" font-weight="900" text-anchor="start" font-family="'JetBrains Mono',Consolas,'Courier New',monospace" >× 128</text><text x="768" y="42" font-size="15" fill="#ef4444" font-weight="900" text-anchor="end" font-family="'JetBrains Mono',Consolas,'Courier New',monospace" >♥ × 3</text><g filter="url(#sh)"><rect x="16" y="380" width="260" height="104" rx="14" fill="#ffffff" /></g><text x="32" y="406" font-size="16" fill="#1b1b3a" font-weight="900" text-anchor="start" >1-5 雲端之路</text><text x="32" y="428" font-size="11" fill="#64748b" font-weight="400" text-anchor="start" >最佳時間：--:--　收集金幣：0 / 30</text><text x="32" y="448" font-size="11" fill="#0369a1" font-weight="400" text-anchor="start" >提示：踩在雲朵上可以跳得更高！</text><rect x="176" y="452" width="88" height="26" rx="8" fill="#22c55e" /><text x="220.0" y="469.68" font-size="13" fill="#fff" font-weight="700" text-anchor="middle" >開始 ▶</text></svg>
