<svg xmlns="http://www.w3.org/2000/svg" viewBox="0 0 800 500" width="800" height="500" font-family="'Noto Sans TC','Microsoft JhengHei','PingFang TC',sans-serif"><defs><filter id="sh" x="-10%" y="-10%" width="120%" height="130%"><feDropShadow dx="0" dy="6" stdDeviation="8" flood-color="#000" flood-opacity="0.28"/></filter><filter id="glow" x="-50%" y="-50%" width="200%" height="200%"><feGaussianBlur stdDeviation="6" result="b"/><feMerge><feMergeNode in="b"/><feMergeNode in="SourceGraphic"/></feMerge></filter><linearGradient id="sel" x1="0" y1="0" x2="1" y2="1"><stop offset="0" stop-color="#1e1b4b"/><stop offset="1" stop-color="#4338ca"/></linearGradient></defs><rect x="0" y="0" width="800" height="500" rx="0" fill="url(#sel)" /><circle cx="243" cy="303" r="1.2" fill="#fff" opacity="0.53"/><circle cx="618" cy="242" r="1.3" fill="#fff" opacity="0.30"/><circle cx="13" cy="465" r="1.6" fill="#fff" opacity="0.44"/><circle cx="239" cy="98" r="1.8" fill="#fff" opacity="0.60"/><circle cx="562" cy="243" r="1.0" fill="#fff" opacity="0.90"/><circle cx="237" cy="325" r="0.7" fill="#fff" opacity="0.94"/><circle cx="399" cy="379" r="0.5" fill="#fff" opacity="0.83"/><circle cx="163" cy="388" r="1.7" fill="#fff" opacity="0.28"/><circle cx="798" cy="15" r="1.6" fill="#fff" opacity="0.45"/><circle cx="609" cy="368" r="1.7" fill="#fff" opacity="0.54"/><circle cx="437" cy="202" r="1.4" fill="#fff" opacity="0.68"/><circle cx="137" cy="449" r="1.0" fill="#fff" opacity="0.28"/><circle cx="506" cy="111" r="0.8" fill="#fff" opacity="0.75"/><circle cx="797" cy="320" r="1.6" fill="#fff" opacity="0.57"/><circle cx="395" cy="293" r="1.0" fill="#fff" opacity="0.69"/><circle cx="598" cy="118" r="1.7" fill="#fff" opacity="0.76"/><circle cx="29" cy="438" r="0.9" fill="#fff" opacity="0.70"/><circle cx="712" cy="83" r="1.4" fill="#fff" opacity="0.49"/><circle cx="554" cy="463" r="1.2" fill="#fff" opacity="0.33"/><circle cx="671" cy="108" r="1.3" fill="#fff" opacity="0.99"/><circle cx="273" cy="145" r="0.7" fill="#fff" opacity="0.61"/><circle cx="654" cy="247" r="0.6" fill="#fff" opacity="0.85"/><circle cx="420" cy="459" r="0.7" fill="#fff" opacity="0.47"/><circle cx="787" cy="212" r="1.6" fill="#fff" opacity="0.28"/><circle cx="629" cy="389" r="0.6" fill="#fff" opacity="0.79"/><circle cx="338" cy="282" r="1.6" fill="#fff" opacity="0.99"/><circle cx="517" cy="120" r="1.8" fill="#fff" opacity="0.48"/><circle cx="78" cy="55" r="1.3" fill="#fff" opacity="0.27"/><circle cx="202" cy="497" r="1.0" fill="#fff" opacity="0.71"/><circle cx="159" cy="353" r="0.6" fill="#fff" opacity="0.90"/><circle cx="321" cy="184" r="1.7" fill="#fff" opacity="0.92"/><circle cx="386" cy="192" r="1.1" fill="#fff" opacity="0.64"/><circle cx="659" cy="443" r="1.3" fill="#fff" opacity="0.67"/><circle cx="635" cy="498" r="1.7" fill="#fff" opacity="0.63"/><circle cx="441" cy="324" r="1.4" fill="#fff" opacity="0.43"/><circle cx="308" cy="223" r="1.8" fill="#fff" opacity="0.64"/><circle cx="561" cy="173" r="0.5" fill="#fff" opacity="0.56"/><circle cx="593" cy="161" r="0.5" fill="#fff" opacity="0.71"/><circle cx="647" cy="68" r="0.6" fill="#fff" opacity="0.72"/><circle cx="477" cy="180" r="1.4" fill="#fff" opacity="0.51"/><circle cx="723" cy="142" r="1.5" fill="#fff" opacity="0.27"/><circle cx="62" cy="488" r="1.4" fill="#fff" opacity="0.97"/><circle cx="257" cy="321" r="1.1" fill="#fff" opacity="0.69"/><circle cx="327" cy="90" r="1.0" fill="#fff" opacity="0.48"/><circle cx="378" cy="432" r="1.3" fill="#fff" opacity="0.48"/><circle cx="386" cy="53" r="1.5" fill="#fff" opacity="0.27"/><circle cx="582" cy="350" r="1.5" fill="#fff" opacity="0.48"/><circle cx="227" cy="334" r="1.5" fill="#fff" opacity="0.43"/><circle cx="191" cy="347" r="1.1" fill="#fff" opacity="0.77"/><circle cx="104" cy="307" r="0.9" fill="#fff" opacity="0.50"/><circle cx="229" cy="224" r="1.6" fill="#fff" opacity="0.97"/><circle cx="81" cy="172" r="1.5" fill="#fff" opacity="0.41"/><circle cx="582" cy="230" r="0.9" fill="#fff" opacity="0.84"/><circle cx="34" cy="271" r="1.7" fill="#fff" opacity="0.49"/><circle cx="588" cy="93" r="1.6" fill="#fff" opacity="0.51"/><circle cx="657" cy="43" r="1.5" fill="#fff" opacity="0.51"/><circle cx="132" cy="215" r="0.9" fill="#fff" opacity="0.85"/><circle cx="277" cy="237" r="1.0" fill="#fff" opacity="0.56"/><circle cx="429" cy="290" r="1.0" fill="#fff" opacity="0.94"/><circle cx="159" cy="102" r="0.5" fill="#fff" opacity="0.96"/><text x="400" y="58" font-size="30" fill="#fff" font-weight="900" text-anchor="middle" stroke="#1b1b3a" stroke-width="6" paint-order="stroke" stroke-linejoin="round">選擇你的角色</text><rect x="40" y="90" width="168" height="340" rx="16" fill="#312e81" stroke="#6366f1" stroke-width="2"/><circle cx="124" cy="190" r="56" fill="#ffffff" opacity="0.08"/><g transform="translate(124 240) scale(2.2)"><rect x="-12" y="-46" width="24" height="20" rx="4" fill="#ffcc99" /><circle cx="5" cy="-38" r="2.5" fill="#222" /><rect x="-14" y="-26" width="28" height="22" rx="4" fill="#e53935" /><rect x="-14" y="-14" width="28" height="8" rx="2" fill="#1e40af" /><rect x="-14" y="-6" width="11" height="6" rx="2" fill="#1e40af" /><rect x="3" y="-6" width="11" height="6" rx="2" fill="#1e40af" /><rect x="14" y="-24" width="9" height="8" rx="3" fill="#ffcc99" /><rect x="-14" y="-52" width="30" height="10" rx="3" fill="#e53935" /></g><text x="124" y="280" font-size="20" fill="#fff" font-weight="900" text-anchor="middle" >勇者</text><text x="124" y="300" font-size="10.5" fill="#c7d2fe" font-weight="400" text-anchor="middle" >均衡型，適合新手</text><text x="56" y="339" font-size="11" fill="#e0e7ff" font-weight="700" text-anchor="start" >速度</text><rect x="92" y="330" width="100" height="10" rx="5.0" fill="#1e1b4b" /><rect x="92" y="330" width="60.0" height="10" rx="5.0" fill="#818cf8" /><text x="56" y="365" font-size="11" fill="#e0e7ff" font-weight="700" text-anchor="start" >跳躍</text><rect x="92" y="356" width="100" height="10" rx="5.0" fill="#1e1b4b" /><rect x="92" y="356" width="60.0" height="10" rx="5.0" fill="#818cf8" /><text x="56" y="391" font-size="11" fill="#e0e7ff" font-weight="700" text-anchor="start" >力量</text><rect x="92" y="382" width="100" height="10" rx="5.0" fill="#1e1b4b" /><rect x="92" y="382" width="80.0" height="10" rx="5.0" fill="#818cf8" /><rect x="224" y="90" width="168" height="340" rx="16" fill="#312e81" stroke="#6366f1" stroke-width="2"/><circle cx="308" cy="190" r="56" fill="#ffffff" opacity="0.08"/><g transform="translate(308 240) scale(2.2)"><rect x="-12" y="-46" width="24" height="20" rx="4" fill="#ffcc99" /><circle cx="5" cy="-38" r="2.5" fill="#222" /><rect x="-14" y="-26" width="28" height="22" rx="4" fill="#7c3aed" /><rect x="-14" y="-14" width="28" height="8" rx="2" fill="#1e40af" /><rect x="-14" y="-6" width="11" height="6" rx="2" fill="#1e40af" /><rect x="3" y="-6" width="11" height="6" rx="2" fill="#1e40af" /><rect x="14" y="-24" width="9" height="8" rx="3" fill="#ffcc99" /><path d="M-16 -44 L0 -78 L16 -44 Z" fill="#7c3aed" /><rect x="-18" y="-48" width="36" height="6" rx="3" fill="#7c3aed" /><circle cx="0" cy="-60" r="3" fill="#fde047" /></g><text x="308" y="280" font-size="20" fill="#fff" font-weight="900" text-anchor="middle" >法師</text><text x="308" y="300" font-size="10.5" fill="#c7d2fe" font-weight="400" text-anchor="middle" >可發射火球攻擊</text><text x="240" y="339" font-size="11" fill="#e0e7ff" font-weight="700" text-anchor="start" >速度</text><rect x="276" y="330" width="100" height="10" rx="5.0" fill="#1e1b4b" /><rect x="276" y="330" width="50.0" height="10" rx="5.0" fill="#818cf8" /><text x="240" y="365" font-size="11" fill="#e0e7ff" font-weight="700" text-anchor="start" >跳躍</text><rect x="276" y="356" width="100" height="10" rx="5.0" fill="#1e1b4b" /><rect x="276" y="356" width="50.0" height="10" rx="5.0" fill="#818cf8" /><text x="240" y="391" font-size="11" fill="#e0e7ff" font-weight="700" text-anchor="start" >力量</text><rect x="276" y="382" width="100" height="10" rx="5.0" fill="#1e1b4b" /><rect x="276" y="382" width="90.0" height="10" rx="5.0" fill="#818cf8" /><rect x="408" y="90" width="168" height="340" rx="16" fill="#4c1d95" stroke="#fde047" stroke-width="4"/><circle cx="492" cy="190" r="56" fill="#ffffff" opacity="0.08"/><g transform="translate(492 240) scale(2.2)"><rect x="-12" y="-46" width="24" height="20" rx="4" fill="#ffcc99" /><circle cx="5" cy="-38" r="2.5" fill="#222" /><rect x="-14" y="-26" width="28" height="22" rx="4" fill="#374151" /><rect x="-14" y="-14" width="28" height="8" rx="2" fill="#111827" /><rect x="-14" y="-6" width="11" height="6" rx="2" fill="#111827" /><rect x="3" y="-6" width="11" height="6" rx="2" fill="#111827" /><rect x="14" y="-24" width="9" height="8" rx="3" fill="#ffcc99" /><rect x="-13" y="-48" width="26" height="10" rx="3" fill="#1f2937" /><path d="M-13 -44 l-12 -6 l2 8z" fill="#1f2937" /><rect x="-12" y="-36" width="24" height="6" rx="0" fill="#1f2937" /></g><text x="492" y="280" font-size="20" fill="#fff" font-weight="900" text-anchor="middle" >忍者</text><text x="492" y="300" font-size="10.5" fill="#c7d2fe" font-weight="400" text-anchor="middle" >速度最快，可二段跳</text><text x="424" y="339" font-size="11" fill="#e0e7ff" font-weight="700" text-anchor="start" >速度</text><rect x="460" y="330" width="100" height="10" rx="5.0" fill="#1e1b4b" /><rect x="460" y="330" width="95.0" height="10" rx="5.0" fill="#fde047" /><text x="424" y="365" font-size="11" fill="#e0e7ff" font-weight="700" text-anchor="start" >跳躍</text><rect x="460" y="356" width="100" height="10" rx="5.0" fill="#1e1b4b" /><rect x="460" y="356" width="80.0" height="10" rx="5.0" fill="#fde047" /><text x="424" y="391" font-size="11" fill="#e0e7ff" font-weight="700" text-anchor="start" >力量</text><rect x="460" y="382" width="100" height="10" rx="5.0" fill="#1e1b4b" /><rect x="460" y="382" width="50.0" height="10" rx="5.0" fill="#fde047" /><rect x="452" y="400" width="80" height="22" rx="11" fill="#fde047" /><text x="492" y="415" font-size="11" fill="#1b1b3a" font-weight="900" text-anchor="middle" >已選擇</text><rect x="592" y="90" width="168" height="340" rx="16" fill="#312e81" stroke="#6366f1" stroke-width="2"/><circle cx="676" cy="190" r="56" fill="#ffffff" opacity="0.08"/><g transform="translate(676 240) scale(2.2)"><rect x="-12" y="-46" width="24" height="20" rx="4" fill="#ffcc99" /><circle cx="5" cy="-38" r="2.5" fill="#222" /><rect x="-14" y="-26" width="28" height="22" rx="4" fill="#f9a8d4" /><rect x="-14" y="-14" width="28" height="8" rx="2" fill="#1e40af" /><rect x="-14" y="-6" width="11" height="6" rx="2" fill="#1e40af" /><rect x="3" y="-6" width="11" height="6" rx="2" fill="#1e40af" /><rect x="14" y="-24" width="9" height="8" rx="3" fill="#ffcc99" /><path d="M-12 -46 l0 -12 l6 6 l6 -10 l6 10 l6 -6 l0 12z" fill="#fbbf24" /><rect x="-14" y="-48" width="6" height="22" rx="3" fill="#ec4899" /><rect x="8" y="-48" width="6" height="22" rx="3" fill="#ec4899" /></g><text x="676" y="280" font-size="20" fill="#fff" font-weight="900" text-anchor="middle" >？？？</text><text x="676" y="300" font-size="10.5" fill="#c7d2fe" font-weight="400" text-anchor="middle" >通過世界 2 解鎖</text><text x="608" y="339" font-size="11" fill="#e0e7ff" font-weight="700" text-anchor="start" >速度</text><rect x="644" y="330" width="100" height="10" rx="5.0" fill="#1e1b4b" /><rect x="644" y="330" width="60.0" height="10" rx="5.0" fill="#818cf8" /><text x="608" y="365" font-size="11" fill="#e0e7ff" font-weight="700" text-anchor="start" >跳躍</text><rect x="644" y="356" width="100" height="10" rx="5.0" fill="#1e1b4b" /><rect x="644" y="356" width="90.0" height="10" rx="5.0" fill="#818cf8" /><text x="608" y="391" font-size="11" fill="#e0e7ff" font-weight="700" text-anchor="start" >力量</text><rect x="644" y="382" width="100" height="10" rx="5.0" fill="#1e1b4b" /><rect x="644" y="382" width="40.0" height="10" rx="5.0" fill="#818cf8" /><rect x="592" y="90" width="168" height="340" rx="16" fill="#000000" opacity="0.45"/><rect x="662" y="236" width="28" height="22" rx="4" fill="#fff" /><path d="M668 236 v-8 a8 8 0 0 1 16 0 v8" fill="none" stroke="#fff" stroke-width="4"/><rect x="320" y="448" width="160" height="38" rx="10" fill="#22c55e" /><text x="400.0" y="472.4" font-size="15" fill="#fff" font-weight="700" text-anchor="middle" >確定出發 ▶</text><text x="40" y="474" font-size="11" fill="#a5b4fc" font-weight="400" text-anchor="start" >◀ ▶ 切換角色　Enter 確認</text></svg>
