<svg xmlns="http://www.w3.org/2000/svg" viewBox="0 0 800 500" width="800" height="500" font-family="'Noto Sans TC','Microsoft JhengHei','PingFang TC',sans-serif"><defs><filter id="sh" x="-10%" y="-10%" width="120%" height="130%"><feDropShadow dx="0" dy="6" stdDeviation="8" flood-color="#000" flood-opacity="0.28"/></filter><filter id="glow" x="-50%" y="-50%" width="200%" height="200%"><feGaussianBlur stdDeviation="6" result="b"/><feMerge><feMergeNode in="b"/><feMergeNode in="SourceGraphic"/></feMerge></filter><linearGradient id="cast" x1="0" y1="0" x2="0" y2="1"><stop offset="0" stop-color="#1c1917" stop-opacity="1"/><stop offset="1" stop-color="#44403c" stop-opacity="1"/></linearGradient><linearGradient id="lava" x1="0" y1="0" x2="0" y2="1"><stop offset="0" stop-color="#fb923c" stop-opacity="1"/><stop offset="1" stop-color="#b91c1c" stop-opacity="1"/></linearGradient><radialGradient id="fire" cx="0.5" cy="0.5" r="0.5"><stop offset="0" stop-color="#fef08a" stop-opacity="1"/><stop offset="1" stop-color="#f97316" stop-opacity="0.2"/></radialGradient></defs><rect x="0" y="0" width="800" height="500" rx="0" fill="url(#cast)" /><rect x="-30" y="0" width="58" height="34" rx="2" fill="#292524" opacity="0.6"/><rect x="30" y="0" width="58" height="34" rx="2" fill="#292524" opacity="0.6"/><rect x="90" y="0" width="58" height="34" rx="2" fill="#292524" opacity="0.6"/><rect x="150" y="0" width="58" height="34" rx="2" fill="#292524" opacity="0.6"/><rect x="210" y="0" width="58" height="34" rx="2" fill="#292524" opacity="0.6"/><rect x="270" y="0" width="58" height="34" rx="2" fill="#292524" opacity="0.6"/><rect x="330" y="0" width="58" height="34" rx="2" fill="#292524" opacity="0.6"/><rect x="390" y="0" width="58" height="34" rx="2" fill="#292524" opacity="0.6"/><rect x="450" y="0" width="58" height="34" rx="2" fill="#292524" opacity="0.6"/><rect x="510" y="0" width="58" height="34" rx="2" fill="#292524" opacity="0.6"/><rect x="570" y="0" width="58" height="34" rx="2" fill="#292524" opacity="0.6"/><rect x="630" y="0" width="58" height="34" rx="2" fill="#292524" opacity="0.6"/><rect x="690" y="0" width="58" height="34" rx="2" fill="#292524" opacity="0.6"/><rect x="750" y="0" width="58" height="34" rx="2" fill="#292524" opacity="0.6"/><rect x="0" y="36" width="58" height="34" rx="2" fill="#292524" opacity="0.6"/><rect x="60" y="36" width="58" height="34" rx="2" fill="#292524" opacity="0.6"/><rect x="120" y="36" width="58" height="34" rx="2" fill="#292524" opacity="0.6"/><rect x="180" y="36" width="58" height="34" rx="2" fill="#292524" opacity="0.6"/><rect x="240" y="36" width="58" height="34" rx="2" fill="#292524" opacity="0.6"/><rect x="300" y="36" width="58" height="34" rx="2" fill="#292524" opacity="0.6"/><rect x="360" y="36" width="58" height="34" rx="2" fill="#292524" opacity="0.6"/><rect x="420" y="36" width="58" height="34" rx="2" fill="#292524" opacity="0.6"/><rect x="480" y="36" width="58" height="34" rx="2" fill="#292524" opacity="0.6"/><rect x="540" y="36" width="58" height="34" rx="2" fill="#292524" opacity="0.6"/><rect x="600" y="36" width="58" height="34" rx="2" fill="#292524" opacity="0.6"/><rect x="660" y="36" width="58" height="34" rx="2" fill="#292524" opacity="0.6"/><rect x="720" y="36" width="58" height="34" rx="2" fill="#292524" opacity="0.6"/><rect x="780" y="36" width="58" height="34" rx="2" fill="#292524" opacity="0.6"/><rect x="-30" y="72" width="58" height="34" rx="2" fill="#292524" opacity="0.6"/><rect x="30" y="72" width="58" height="34" rx="2" fill="#292524" opacity="0.6"/><rect x="90" y="72" width="58" height="34" rx="2" fill="#292524" opacity="0.6"/><rect x="150" y="72" width="58" height="34" rx="2" fill="#292524" opacity="0.6"/><rect x="210" y="72" width="58" height="34" rx="2" fill="#292524" opacity="0.6"/><rect x="270" y="72" width="58" height="34" rx="2" fill="#292524" opacity="0.6"/><rect x="330" y="72" width="58" height="34" rx="2" fill="#292524" opacity="0.6"/><rect x="390" y="72" width="58" height="34" rx="2" fill="#292524" opacity="0.6"/><rect x="450" y="72" width="58" height="34" rx="2" fill="#292524" opacity="0.6"/><rect x="510" y="72" width="58" height="34" rx="2" fill="#292524" opacity="0.6"/><rect x="570" y="72" width="58" height="34" rx="2" fill="#292524" opacity="0.6"/><rect x="630" y="72" width="58" height="34" rx="2" fill="#292524" opacity="0.6"/><rect x="690" y="72" width="58" height="34" rx="2" fill="#292524" opacity="0.6"/><rect x="750" y="72" width="58" height="34" rx="2" fill="#292524" opacity="0.6"/><rect x="0" y="108" width="58" height="34" rx="2" fill="#292524" opacity="0.6"/><rect x="60" y="108" width="58" height="34" rx="2" fill="#292524" opacity="0.6"/><rect x="120" y="108" width="58" height="34" rx="2" fill="#292524" opacity="0.6"/><rect x="180" y="108" width="58" height="34" rx="2" fill="#292524" opacity="0.6"/><rect x="240" y="108" width="58" height="34" rx="2" fill="#292524" opacity="0.6"/><rect x="300" y="108" width="58" height="34" rx="2" fill="#292524" opacity="0.6"/><rect x="360" y="108" width="58" height="34" rx="2" fill="#292524" opacity="0.6"/><rect x="420" y="108" width="58" height="34" rx="2" fill="#292524" opacity="0.6"/><rect x="480" y="108" width="58" height="34" rx="2" fill="#292524" opacity="0.6"/><rect x="540" y="108" width="58" height="34" rx="2" fill="#292524" opacity="0.6"/><rect x="600" y="108" width="58" height="34" rx="2" fill="#292524" opacity="0.6"/><rect x="660" y="108" width="58" height="34" rx="2" fill="#292524" opacity="0.6"/><rect x="720" y="108" width="58" height="34" rx="2" fill="#292524" opacity="0.6"/><rect x="780" y="108" width="58" height="34" rx="2" fill="#292524" opacity="0.6"/><rect x="-30" y="144" width="58" height="34" rx="2" fill="#292524" opacity="0.6"/><rect x="30" y="144" width="58" height="34" rx="2" fill="#292524" opacity="0.6"/><rect x="90" y="144" width="58" height="34" rx="2" fill="#292524" opacity="0.6"/><rect x="150" y="144" width="58" height="34" rx="2" fill="#292524" opacity="0.6"/><rect x="210" y="144" width="58" height="34" rx="2" fill="#292524" opacity="0.6"/><rect x="270" y="144" width="58" height="34" rx="2" fill="#292524" opacity="0.6"/><rect x="330" y="144" width="58" height="34" rx="2" fill="#292524" opacity="0.6"/><rect x="390" y="144" width="58" height="34" rx="2" fill="#292524" opacity="0.6"/><rect x="450" y="144" width="58" height="34" rx="2" fill="#292524" opacity="0.6"/><rect x="510" y="144" width="58" height="34" rx="2" fill="#292524" opacity="0.6"/><rect x="570" y="144" width="58" height="34" rx="2" fill="#292524" opacity="0.6"/><rect x="630" y="144" width="58" height="34" rx="2" fill="#292524" opacity="0.6"/><rect x="690" y="144" width="58" height="34" rx="2" fill="#292524" opacity="0.6"/><rect x="750" y="144" width="58" height="34" rx="2" fill="#292524" opacity="0.6"/><rect x="0" y="180" width="58" height="34" rx="2" fill="#292524" opacity="0.6"/><rect x="60" y="180" width="58" height="34" rx="2" fill="#292524" opacity="0.6"/><rect x="120" y="180" width="58" height="34" rx="2" fill="#292524" opacity="0.6"/><rect x="180" y="180" width="58" height="34" rx="2" fill="#292524" opacity="0.6"/><rect x="240" y="180" width="58" height="34" rx="2" fill="#292524" opacity="0.6"/><rect x="300" y="180" width="58" height="34" rx="2" fill="#292524" opacity="0.6"/><rect x="360" y="180" width="58" height="34" rx="2" fill="#292524" opacity="0.6"/><rect x="420" y="180" width="58" height="34" rx="2" fill="#292524" opacity="0.6"/><rect x="480" y="180" width="58" height="34" rx="2" fill="#292524" opacity="0.6"/><rect x="540" y="180" width="58" height="34" rx="2" fill="#292524" opacity="0.6"/><rect x="600" y="180" width="58" height="34" rx="2" fill="#292524" opacity="0.6"/><rect x="660" y="180" width="58" height="34" rx="2" fill="#292524" opacity="0.6"/><rect x="720" y="180" width="58" height="34" rx="2" fill="#292524" opacity="0.6"/><rect x="780" y="180" width="58" height="34" rx="2" fill="#292524" opacity="0.6"/><rect x="-30" y="216" width="58" height="34" rx="2" fill="#292524" opacity="0.6"/><rect x="30" y="216" width="58" height="34" rx="2" fill="#292524" opacity="0.6"/><rect x="90" y="216" width="58" height="34" rx="2" fill="#292524" opacity="0.6"/><rect x="150" y="216" width="58" height="34" rx="2" fill="#292524" opacity="0.6"/><rect x="210" y="216" width="58" height="34" rx="2" fill="#292524" opacity="0.6"/><rect x="270" y="216" width="58" height="34" rx="2" fill="#292524" opacity="0.6"/><rect x="330" y="216" width="58" height="34" rx="2" fill="#292524" opacity="0.6"/><rect x="390" y="216" width="58" height="34" rx="2" fill="#292524" opacity="0.6"/><rect x="450" y="216" width="58" height="34" rx="2" fill="#292524" opacity="0.6"/><rect x="510" y="216" width="58" height="34" rx="2" fill="#292524" opacity="0.6"/><rect x="570" y="216" width="58" height="34" rx="2" fill="#292524" opacity="0.6"/><rect x="630" y="216" width="58" height="34" rx="2" fill="#292524" opacity="0.6"/><rect x="690" y="216" width="58" height="34" rx="2" fill="#292524" opacity="0.6"/><rect x="750" y="216" width="58" height="34" rx="2" fill="#292524" opacity="0.6"/><rect x="0" y="252" width="58" height="34" rx="2" fill="#292524" opacity="0.6"/><rect x="60" y="252" width="58" height="34" rx="2" fill="#292524" opacity="0.6"/><rect x="120" y="252" width="58" height="34" rx="2" fill="#292524" opacity="0.6"/><rect x="180" y="252" width="58" height="34" rx="2" fill="#292524" opacity="0.6"/><rect x="240" y="252" width="58" height="34" rx="2" fill="#292524" opacity="0.6"/><rect x="300" y="252" width="58" height="34" rx="2" fill="#292524" opacity="0.6"/><rect x="360" y="252" width="58" height="34" rx="2" fill="#292524" opacity="0.6"/><rect x="420" y="252" width="58" height="34" rx="2" fill="#292524" opacity="0.6"/><rect x="480" y="252" width="58" height="34" rx="2" fill="#292524" opacity="0.6"/><rect x="540" y="252" width="58" height="34" rx="2" fill="#292524" opacity="0.6"/><rect x="600" y="252" width="58" height="34" rx="2" fill="#292524" opacity="0.6"/><rect x="660" y="252" width="58" height="34" rx="2" fill="#292524" opacity="0.6"/><rect x="720" y="252" width="58" height="34" rx="2" fill="#292524" opacity="0.6"/><rect x="780" y="252" width="58" height="34" rx="2" fill="#292524" opacity="0.6"/><rect x="-30" y="288" width="58" height="34" rx="2" fill="#292524" opacity="0.6"/><rect x="30" y="288" width="58" height="34" rx="2" fill="#292524" opacity="0.6"/><rect x="90" y="288" width="58" height="34" rx="2" fill="#292524" opacity="0.6"/><rect x="150" y="288" width="58" height="34" rx="2" fill="#292524" opacity="0.6"/><rect x="210" y="288" width="58" height="34" rx="2" fill="#292524" opacity="0.6"/><rect x="270" y="288" width="58" height="34" rx="2" fill="#292524" opacity="0.6"/><rect x="330" y="288" width="58" height="34" rx="2" fill="#292524" opacity="0.6"/><rect x="390" y="288" width="58" height="34" rx="2" fill="#292524" opacity="0.6"/><rect x="450" y="288" width="58" height="34" rx="2" fill="#292524" opacity="0.6"/><rect x="510" y="288" width="58" height="34" rx="2" fill="#292524" opacity="0.6"/><rect x="570" y="288" width="58" height="34" rx="2" fill="#292524" opacity="0.6"/><rect x="630" y="288" width="58" height="34" rx="2" fill="#292524" opacity="0.6"/><rect x="690" y="288" width="58" height="34" rx="2" fill="#292524" opacity="0.6"/><rect x="750" y="288" width="58" height="34" rx="2" fill="#292524" opacity="0.6"/><rect x="0" y="324" width="58" height="34" rx="2" fill="#292524" opacity="0.6"/><rect x="60" y="324" width="58" height="34" rx="2" fill="#292524" opacity="0.6"/><rect x="120" y="324" width="58" height="34" rx="2" fill="#292524" opacity="0.6"/><rect x="180" y="324" width="58" height="34" rx="2" fill="#292524" opacity="0.6"/><rect x="240" y="324" width="58" height="34" rx="2" fill="#292524" opacity="0.6"/><rect x="300" y="324" width="58" height="34" rx="2" fill="#292524" opacity="0.6"/><rect x="360" y="324" width="58" height="34" rx="2" fill="#292524" opacity="0.6"/><rect x="420" y="324" width="58" height="34" rx="2" fill="#292524" opacity="0.6"/><rect x="480" y="324" width="58" height="34" rx="2" fill="#292524" opacity="0.6"/><rect x="540" y="324" width="58" height="34" rx="2" fill="#292524" opacity="0.6"/><rect x="600" y="324" width="58" height="34" rx="2" fill="#292524" opacity="0.6"/><rect x="660" y="324" width="58" height="34" rx="2" fill="#292524" opacity="0.6"/><rect x="720" y="324" width="58" height="34" rx="2" fill="#292524" opacity="0.6"/><rect x="780" y="324" width="58" height="34" rx="2" fill="#292524" opacity="0.6"/><rect x="80" y="120" width="26" height="40" rx="3" fill="#78350f" /><path d="M93 120 q-10 -16 0 -30 q10 14 0 30z" fill="#f97316" /><rect x="690" y="120" width="26" height="40" rx="3" fill="#78350f" /><path d="M703 120 q-10 -16 0 -30 q10 14 0 30z" fill="#f97316" /><rect x="0" y="430" width="800" height="70" rx="0" fill="url(#lava)" /><circle cx="60" cy="440" r="8" fill="#fde047" opacity="0.7"/><circle cx="210" cy="440" r="8" fill="#fde047" opacity="0.7"/><circle cx="380" cy="440" r="8" fill="#fde047" opacity="0.7"/><circle cx="560" cy="440" r="8" fill="#fde047" opacity="0.7"/><circle cx="720" cy="440" r="8" fill="#fde047" opacity="0.7"/><rect x="40" y="360" width="260" height="24" rx="3" fill="#78716c" stroke="#292524" stroke-width="3"/><rect x="500" y="330" width="260" height="24" rx="3" fill="#78716c" stroke="#292524" stroke-width="3"/><rect x="320" y="270" width="120" height="20" rx="3" fill="#78716c" stroke="#292524" stroke-width="3"/><g transform="translate(610 250)"><ellipse cx="0" cy="40" rx="90" ry="46" fill="#15803d" stroke="#052e16" stroke-width="4"/><path d="M-30 10 q-60 -80 -40 -120 q30 30 20 80z" fill="#166534" stroke="#052e16" stroke-width="3"/><path d="M30 0 q40 -90 90 -100 q-20 40 -50 100z" fill="#166534" stroke="#052e16" stroke-width="3"/><ellipse cx="-70" cy="-10" rx="46" ry="34" fill="#16a34a" stroke="#052e16" stroke-width="4"/><path d="M-60 -40 l-6 -28 l16 22z M-90 -38 l-14 -24 l20 16z" fill="#fde68a" /><circle cx="-82" cy="-16" r="7" fill="#fef08a" /><circle cx="-82" cy="-16" r="3" fill="#111" /><path d="M-112 0 q10 8 26 2" fill="none" stroke="#052e16" stroke-width="3"/><rect x="-40" y="74" width="22" height="16" rx="4" fill="#14532d" /><rect x="30" y="74" width="22" height="16" rx="4" fill="#14532d" /></g><path d="M508 248 Q420 230 330 290 Q420 260 508 262 Z" fill="url(#fire)" /><circle cx="350" cy="284" r="18" fill="url(#fire)" /><g transform="translate(160 360) scale(1.5)"><rect x="-12" y="-46" width="24" height="20" rx="4" fill="#ffcc99" /><circle cx="5" cy="-38" r="2.5" fill="#222" /><rect x="-14" y="-26" width="28" height="22" rx="4" fill="#e53935" /><rect x="-14" y="-14" width="28" height="8" rx="2" fill="#1e40af" /><rect x="-14" y="-6" width="11" height="6" rx="2" fill="#1e40af" /><rect x="3" y="-6" width="11" height="6" rx="2" fill="#1e40af" /><rect x="14" y="-24" width="9" height="8" rx="3" fill="#ffcc99" /><rect x="-14" y="-52" width="30" height="10" rx="3" fill="#e53935" /></g><rect x="178" y="300" width="6" height="40" rx="2" fill="#e5e7eb" transform="rotate(30 181 320)"/><text x="400" y="36" font-size="16" fill="#fca5a5" font-weight="900" text-anchor="middle" stroke="#1b1b3a" stroke-width="4" paint-order="stroke" stroke-linejoin="round">火龍王 · 第 2 階段</text><rect x="220" y="46" width="360" height="16" rx="8" fill="#450a0a" stroke="#fca5a5" stroke-width="2"/><rect x="220" y="46" width="150" height="16" rx="8" fill="#ef4444" /><text x="470" y="160" font-size="26" fill="#fde047" font-weight="900" text-anchor="middle" stroke="#7c2d12" stroke-width="5" paint-order="stroke" stroke-linejoin="round">-120</text><path d="M36 450 c-8 -12 -24 -2 -12 10 l12 12 l12 -12 c12 -12 -4 -22 -12 -10z" fill="#ef4444" stroke="#1b1b3a" stroke-width="2.5"/><path d="M70 450 c-8 -12 -24 -2 -12 10 l12 12 l12 -12 c12 -12 -4 -22 -12 -10z" fill="#ef4444" stroke="#1b1b3a" stroke-width="2.5"/><path d="M104 450 c-8 -12 -24 -2 -12 10 l12 12 l12 -12 c12 -12 -4 -22 -12 -10z" fill="#57534e" stroke="#1b1b3a" stroke-width="2.5"/><text x="24" y="40" font-size="14" fill="#fff" font-weight="900" text-anchor="start" font-family="'JetBrains Mono',Consolas,'Courier New',monospace" stroke="#1b1b3a" stroke-width="4" paint-order="stroke" stroke-linejoin="round">WORLD 1-BOSS</text><text x="776" y="40" font-size="14" fill="#fff" font-weight="900" text-anchor="end" font-family="'JetBrains Mono',Consolas,'Courier New',monospace" stroke="#1b1b3a" stroke-width="4" paint-order="stroke" stroke-linejoin="round">TIME 142</text></svg>
