<svg xmlns="http://www.w3.org/2000/svg" viewBox="0 0 800 500" width="800" height="500" font-family="'Noto Sans TC','Microsoft JhengHei','PingFang TC',sans-serif"><defs><filter id="sh" x="-10%" y="-10%" width="120%" height="130%"><feDropShadow dx="0" dy="6" stdDeviation="8" flood-color="#000" flood-opacity="0.28"/></filter></defs><rect x="0" y="0" width="800" height="500" rx="0" fill="#313338" /><rect x="0" y="0" width="60" height="500" rx="0" fill="#1e1f22" /><rect x="60" y="0" width="176" height="500" rx="0" fill="#2b2d31" /><circle cx="30" cy="34" r="20" fill="#5865f2" opacity="1"/><circle cx="30" cy="90" r="20" fill="#ed4245" opacity="0.75"/><circle cx="30" cy="146" r="20" fill="#57f287" opacity="0.75"/><circle cx="30" cy="202" r="20" fill="#fee75c" opacity="0.75"/><circle cx="30" cy="258" r="20" fill="#eb459e" opacity="0.75"/><rect x="0" y="22" width="4" height="24" rx="2" fill="#fff" /><text x="76" y="36" font-size="14" fill="#f2f3f5" font-weight="900" text-anchor="start" >遊戲社群伺服器</text><line x1="60" y1="52" x2="236" y2="52" stroke="#1e1f22" stroke-width="2"/><text x="76" y="80" font-size="10" fill="#949ba4" font-weight="700" text-anchor="start" >文字頻道</text><text x="80" y="108" font-size="13" fill="#949ba4" font-weight="400" text-anchor="start" >#  公告</text><text x="80" y="138" font-size="13" fill="#949ba4" font-weight="400" text-anchor="start" >#  一般聊天</text><rect x="68" y="150" width="160" height="26" rx="4" fill="#404249" /><text x="80" y="168" font-size="13" fill="#f2f3f5" font-weight="700" text-anchor="start" >#  抽獎活動</text><text x="80" y="198" font-size="13" fill="#949ba4" font-weight="400" text-anchor="start" >#  等級排行</text><text x="80" y="228" font-size="13" fill="#949ba4" font-weight="400" text-anchor="start" >#  音樂點播</text><text x="80" y="258" font-size="13" fill="#949ba4" font-weight="400" text-anchor="start" >#  新手教學</text><rect x="60" y="452" width="176" height="48" rx="0" fill="#232428" /><circle cx="84" cy="476" r="14" fill="#f0b232"/><text x="106" y="474" font-size="12" fill="#f2f3f5" font-weight="700" text-anchor="start" >管理員 Sean</text><text x="106" y="489" font-size="10" fill="#949ba4" font-weight="400" text-anchor="start" >線上</text><rect x="236" y="0" width="564" height="48" rx="0" fill="#313338" /><line x1="236" y1="48" x2="800" y2="48" stroke="#26272b" stroke-width="2"/><text x="256" y="30" font-size="15" fill="#f2f3f5" font-weight="900" text-anchor="start" >#  抽獎活動</text><text x="370" y="30" font-size="12" fill="#949ba4" font-weight="400" text-anchor="start" >| 每週六晚上舉辦，記得按下參加！</text><circle cx="272" cy="86" r="18" fill="#eb459e"/><text x="300" y="80" font-size="13" fill="#f2f3f5" font-weight="700" text-anchor="start" >小明</text><text x="338" y="80" font-size="10" fill="#949ba4" font-weight="400" text-anchor="start" >今天 20:15</text><rect x="300" y="88" width="336" height="22" rx="4" fill="#2b2d31" /><text x="308" y="103" font-size="11.5" fill="#dbdee1" font-weight="400" text-anchor="start" font-family="'JetBrains Mono',Consolas,'Courier New',monospace" >/抽獎 開始 獎品:Steam 禮物卡 時間:10m</text><circle cx="272" cy="142" r="18" fill="#5865f2"/><text x="272" y="147" font-size="14" fill="#fff" font-weight="900" text-anchor="middle" >F</text><text x="300" y="136" font-size="13" fill="#f2f3f5" font-weight="700" text-anchor="start" >FutureBot</text><rect x="368" y="125" width="30" height="15" rx="3" fill="#5865f2" /><text x="383" y="136" font-size="9" fill="#fff" font-weight="700" text-anchor="middle" >BOT</text><text x="406" y="136" font-size="10" fill="#949ba4" font-weight="400" text-anchor="start" >今天 20:15</text><rect x="300" y="148" width="420" height="132" rx="6" fill="#2b2d31" /><rect x="300" y="148" width="4" height="132" rx="2" fill="#fee75c" /><text x="318" y="174" font-size="15" fill="#f2f3f5" font-weight="900" text-anchor="start" >抽獎活動開始！</text><text x="318" y="196" font-size="11.5" fill="#dbdee1" font-weight="400" text-anchor="start" >點擊下方按鈕即可參加，結束時自動抽出得主。</text><text x="318" y="222" font-size="11" fill="#b5bac1" font-weight="700" text-anchor="start" >獎品</text><text x="318" y="240" font-size="12" fill="#f2f3f5" font-weight="400" text-anchor="start" >Steam 禮物卡 $500</text><text x="454" y="222" font-size="11" fill="#b5bac1" font-weight="700" text-anchor="start" >參加人數</text><text x="454" y="240" font-size="12" fill="#f2f3f5" font-weight="400" text-anchor="start" >128 人</text><text x="590" y="222" font-size="11" fill="#b5bac1" font-weight="700" text-anchor="start" >剩餘時間</text><text x="590" y="240" font-size="12" fill="#f2f3f5" font-weight="400" text-anchor="start" >09:42</text><rect x="318" y="252" width="96" height="24" rx="4" fill="#5865f2" /><text x="366" y="268" font-size="11.5" fill="#fff" font-weight="700" text-anchor="middle" >參加抽獎</text><rect x="422" y="252" width="76" height="24" rx="4" fill="#4e5058" /><text x="460" y="268" font-size="11.5" fill="#fff" font-weight="500" text-anchor="middle" >查看規則</text><rect x="300" y="292" width="420" height="140" rx="6" fill="#2b2d31" /><rect x="300" y="292" width="4" height="140" rx="2" fill="#57f287" /><text x="318" y="316" font-size="14" fill="#f2f3f5" font-weight="900" text-anchor="start" >本週等級排行榜</text><text x="318" y="342" font-size="12" fill="#fee75c" font-weight="900" text-anchor="start" >1.</text><text x="340" y="342" font-size="12" fill="#f2f3f5" font-weight="700" text-anchor="start" >阿傑</text><text x="420" y="342" font-size="11.5" fill="#b5bac1" font-weight="400" text-anchor="start" font-family="'JetBrains Mono',Consolas,'Courier New',monospace" >Lv.42</text><rect x="480" y="332" width="200" height="10" rx="5" fill="#1e1f22" /><rect x="480" y="332" width="172" height="10" rx="5" fill="#57f287" /><text x="318" y="366" font-size="12" fill="#c0c0c0" font-weight="900" text-anchor="start" >2.</text><text x="340" y="366" font-size="12" fill="#f2f3f5" font-weight="700" text-anchor="start" >小雨</text><text x="420" y="366" font-size="11.5" fill="#b5bac1" font-weight="400" text-anchor="start" font-family="'JetBrains Mono',Consolas,'Courier New',monospace" >Lv.39</text><rect x="480" y="356" width="200" height="10" rx="5" fill="#1e1f22" /><rect x="480" y="356" width="144" height="10" rx="5" fill="#57f287" /><text x="318" y="390" font-size="12" fill="#cd7f32" font-weight="900" text-anchor="start" >3.</text><text x="340" y="390" font-size="12" fill="#f2f3f5" font-weight="700" text-anchor="start" >Kevin</text><text x="420" y="390" font-size="11.5" fill="#b5bac1" font-weight="400" text-anchor="start" font-family="'JetBrains Mono',Consolas,'Courier New',monospace" >Lv.37</text><rect x="480" y="380" width="200" height="10" rx="5" fill="#1e1f22" /><rect x="480" y="380" width="110" height="10" rx="5" fill="#57f287" /><text x="318" y="414" font-size="12" fill="#949ba4" font-weight="900" text-anchor="start" >4.</text><text x="340" y="414" font-size="12" fill="#f2f3f5" font-weight="700" text-anchor="start" >貓貓</text><text x="420" y="414" font-size="11.5" fill="#b5bac1" font-weight="400" text-anchor="start" font-family="'JetBrains Mono',Consolas,'Courier New',monospace" >Lv.33</text><rect x="480" y="404" width="200" height="10" rx="5" fill="#1e1f22" /><rect x="480" y="404" width="82" height="10" rx="5" fill="#57f287" /><rect x="256" y="448" width="524" height="36" rx="8" fill="#383a40" /><text x="274" y="471" font-size="12.5" fill="#6d6f78" font-weight="400" text-anchor="start" >傳送訊息到 #抽獎活動</text></svg>
