<svg xmlns="http://www.w3.org/2000/svg" viewBox="0 0 800 500" width="800" height="500" font-family="'Noto Sans TC','Microsoft JhengHei','PingFang TC',sans-serif"><defs><filter id="sh" x="-10%" y="-10%" width="120%" height="130%"><feDropShadow dx="0" dy="6" stdDeviation="8" flood-color="#000" flood-opacity="0.28"/></filter><linearGradient id="sky" x1="0" y1="0" x2="0" y2="1"><stop offset="0" stop-color="#4cb8ff"/><stop offset="1" stop-color="#d4f3ff"/></linearGradient></defs><rect x="0" y="0" width="800" height="500" rx="0" fill="url(#sky)" /><circle cx="690" cy="86" r="38" fill="#fff3a6"/><circle cx="690" cy="86" r="52" fill="#fff3a6" opacity="0.35"/><g fill="#fff" opacity="0.92"><ellipse cx="140" cy="110" rx="40.0" ry="16.0"/><circle cx="126.0" cy="100.0" r="16.0"/><circle cx="152.0" cy="96.0" r="20.0"/></g><g fill="#fff" opacity="0.92"><ellipse cx="420" cy="80" rx="48.0" ry="19.2"/><circle cx="403.2" cy="68.0" r="19.2"/><circle cx="434.4" cy="63.2" r="24.0"/></g><g fill="#fff" opacity="0.92"><ellipse cx="600" cy="170" rx="32.0" ry="12.8"/><circle cx="588.8" cy="162.0" r="12.8"/><circle cx="609.6" cy="158.8" r="16.0"/></g><path d="M0 420 Q120 300 240 420 Z" fill="#7fd39b"/><path d="M180 420 Q340 260 500 420 Z" fill="#69c48a"/><path d="M460 420 Q620 320 800 420 Z" fill="#7fd39b"/><rect x="0" y="420" width="800" height="80" rx="0" fill="#c47a3a" /><rect x="0" y="412" width="800" height="16" rx="0" fill="#5cc84a" /><line x1="0" y1="428" x2="0" y2="500" stroke="#a5612a" stroke-width="2"/><line x1="40" y1="428" x2="40" y2="500" stroke="#a5612a" stroke-width="2"/><line x1="80" y1="428" x2="80" y2="500" stroke="#a5612a" stroke-width="2"/><line x1="120" y1="428" x2="120" y2="500" stroke="#a5612a" stroke-width="2"/><line x1="160" y1="428" x2="160" y2="500" stroke="#a5612a" stroke-width="2"/><line x1="200" y1="428" x2="200" y2="500" stroke="#a5612a" stroke-width="2"/><line x1="240" y1="428" x2="240" y2="500" stroke="#a5612a" stroke-width="2"/><line x1="280" y1="428" x2="280" y2="500" stroke="#a5612a" stroke-width="2"/><line x1="320" y1="428" x2="320" y2="500" stroke="#a5612a" stroke-width="2"/><line x1="360" y1="428" x2="360" y2="500" stroke="#a5612a" stroke-width="2"/><line x1="400" y1="428" x2="400" y2="500" stroke="#a5612a" stroke-width="2"/><line x1="440" y1="428" x2="440" y2="500" stroke="#a5612a" stroke-width="2"/><line x1="480" y1="428" x2="480" y2="500" stroke="#a5612a" stroke-width="2"/><line x1="520" y1="428" x2="520" y2="500" stroke="#a5612a" stroke-width="2"/><line x1="560" y1="428" x2="560" y2="500" stroke="#a5612a" stroke-width="2"/><line x1="600" y1="428" x2="600" y2="500" stroke="#a5612a" stroke-width="2"/><line x1="640" y1="428" x2="640" y2="500" stroke="#a5612a" stroke-width="2"/><line x1="680" y1="428" x2="680" y2="500" stroke="#a5612a" stroke-width="2"/><line x1="720" y1="428" x2="720" y2="500" stroke="#a5612a" stroke-width="2"/><line x1="760" y1="428" x2="760" y2="500" stroke="#a5612a" stroke-width="2"/><line x1="0" y1="464" x2="800" y2="464" stroke="#a5612a" stroke-width="2"/><rect x="380" y="300" width="160" height="26" rx="3" fill="#d9733b" stroke="#7c3a14" stroke-width="2"/><line x1="412" y1="300" x2="412" y2="326" stroke="#7c3a14" stroke-width="2"/><line x1="444" y1="300" x2="444" y2="326" stroke="#7c3a14" stroke-width="2"/><line x1="476" y1="300" x2="476" y2="326" stroke="#7c3a14" stroke-width="2"/><line x1="508" y1="300" x2="508" y2="326" stroke="#7c3a14" stroke-width="2"/><line x1="380" y1="313" x2="540" y2="313" stroke="#7c3a14" stroke-width="1.5"/><rect x="560" y="220" width="96" height="26" rx="3" fill="#d9733b" stroke="#7c3a14" stroke-width="2"/><line x1="592" y1="220" x2="592" y2="246" stroke="#7c3a14" stroke-width="2"/><line x1="624" y1="220" x2="624" y2="246" stroke="#7c3a14" stroke-width="2"/><line x1="560" y1="233" x2="656" y2="233" stroke="#7c3a14" stroke-width="1.5"/><rect x="120" y="260" width="96" height="26" rx="3" fill="#d9733b" stroke="#7c3a14" stroke-width="2"/><line x1="152" y1="260" x2="152" y2="286" stroke="#7c3a14" stroke-width="2"/><line x1="184" y1="260" x2="184" y2="286" stroke="#7c3a14" stroke-width="2"/><line x1="120" y1="273" x2="216" y2="273" stroke="#7c3a14" stroke-width="1.5"/><rect x="412" y="180" width="34" height="34" rx="4" fill="#f5b000" stroke="#8a5600" stroke-width="2.5"/><text x="429" y="205" font-size="22" fill="#fff" font-weight="900" text-anchor="middle" >?</text><ellipse cx="412" cy="270" rx="9" ry="11" fill="#ffd23f" stroke="#e09b00" stroke-width="2.5"/><rect x="410" y="264" width="4" height="12" rx="2" fill="#e09b00"/><ellipse cx="444" cy="262" rx="9" ry="11" fill="#ffd23f" stroke="#e09b00" stroke-width="2.5"/><rect x="442" y="256" width="4" height="12" rx="2" fill="#e09b00"/><ellipse cx="476" cy="270" rx="9" ry="11" fill="#ffd23f" stroke="#e09b00" stroke-width="2.5"/><rect x="474" y="264" width="4" height="12" rx="2" fill="#e09b00"/><ellipse cx="582" cy="190" rx="9" ry="11" fill="#ffd23f" stroke="#e09b00" stroke-width="2.5"/><rect x="580" y="184" width="4" height="12" rx="2" fill="#e09b00"/><ellipse cx="614" cy="182" rx="9" ry="11" fill="#ffd23f" stroke="#e09b00" stroke-width="2.5"/><rect x="612" y="176" width="4" height="12" rx="2" fill="#e09b00"/><ellipse cx="646" cy="190" rx="9" ry="11" fill="#ffd23f" stroke="#e09b00" stroke-width="2.5"/><rect x="644" y="184" width="4" height="12" rx="2" fill="#e09b00"/><ellipse cx="152" cy="230" rx="9" ry="11" fill="#ffd23f" stroke="#e09b00" stroke-width="2.5"/><rect x="150" y="224" width="4" height="12" rx="2" fill="#e09b00"/><ellipse cx="184" cy="222" rx="9" ry="11" fill="#ffd23f" stroke="#e09b00" stroke-width="2.5"/><rect x="182" y="216" width="4" height="12" rx="2" fill="#e09b00"/><g transform="translate(290 300)"><rect x="-14" y="-40" width="30" height="10" rx="3" fill="#e53935" /><rect x="-12" y="-32" width="24" height="20" rx="4" fill="#ffcc99" /><circle cx="5" cy="-24" r="2.5" fill="#222"/><rect x="-14" y="-12" width="28" height="24" rx="4" fill="#e53935" /><rect x="-14" y="-4" width="28" height="10" rx="2" fill="#1e40af" /><rect x="-16" y="12" width="12" height="12" rx="3" fill="#1e40af" /><rect x="4" y="8" width="12" height="12" rx="3" fill="#1e40af" /><rect x="14" y="-14" width="10" height="8" rx="3" fill="#ffcc99" /></g><path d="M250 320 q-20 10 -40 4" stroke="#fff" stroke-width="3" fill="none" opacity="0.7"/><path d="M498 414 q0 -36 22 -36 q22 0 22 36 z" fill="#7b2ff7"/><circle cx="513" cy="398" r="5" fill="#fff"/><circle cx="527" cy="398" r="5" fill="#fff"/><circle cx="514" cy="399" r="2.5" fill="#111"/><circle cx="528" cy="399" r="2.5" fill="#111"/><path d="M658 414 q0 -36 22 -36 q22 0 22 36 z" fill="#7b2ff7"/><circle cx="673" cy="398" r="5" fill="#fff"/><circle cx="687" cy="398" r="5" fill="#fff"/><circle cx="674" cy="399" r="2.5" fill="#111"/><circle cx="688" cy="399" r="2.5" fill="#111"/><rect x="752" y="170" width="6" height="244" fill="#e5e7eb"/><circle cx="755" cy="166" r="7" fill="#ffd23f"/><path d="M752 178 l-46 18 l46 18 z" fill="#22c55e"/><rect x="738" y="404" width="34" height="12" rx="2" fill="#6b7280" /><text x="24" y="40" font-size="14" fill="#fff" font-weight="900" text-anchor="start" font-family="'JetBrains Mono',Consolas,'Courier New',monospace" stroke="#1b1b3a" stroke-width="5" paint-order="stroke" letter-spacing="1">SCORE</text><text x="24" y="64" font-size="20" fill="#fff" font-weight="900" text-anchor="start" font-family="'JetBrains Mono',Consolas,'Courier New',monospace" stroke="#1b1b3a" stroke-width="5" paint-order="stroke" letter-spacing="1">012450</text><ellipse cx="214" cy="50" rx="9" ry="11" fill="#ffd23f" stroke="#e09b00" stroke-width="2.5"/><rect x="212" y="44" width="4" height="12" rx="2" fill="#e09b00"/><text x="232" y="58" font-size="20" fill="#fff" font-weight="900" text-anchor="start" font-family="'JetBrains Mono',Consolas,'Courier New',monospace" stroke="#1b1b3a" stroke-width="5" paint-order="stroke" letter-spacing="1">× 23</text><text x="400" y="40" font-size="14" fill="#fff" font-weight="900" text-anchor="middle" font-family="'JetBrains Mono',Consolas,'Courier New',monospace" stroke="#1b1b3a" stroke-width="5" paint-order="stroke" letter-spacing="1">WORLD</text><text x="400" y="64" font-size="20" fill="#fff" font-weight="900" text-anchor="middle" font-family="'JetBrains Mono',Consolas,'Courier New',monospace" stroke="#1b1b3a" stroke-width="5" paint-order="stroke" letter-spacing="1">1-3</text><text x="560" y="40" font-size="14" fill="#fff" font-weight="900" text-anchor="start" font-family="'JetBrains Mono',Consolas,'Courier New',monospace" stroke="#1b1b3a" stroke-width="5" paint-order="stroke" letter-spacing="1">TIME</text><text x="560" y="64" font-size="20" fill="#fff" font-weight="900" text-anchor="start" font-family="'JetBrains Mono',Consolas,'Courier New',monospace" stroke="#1b1b3a" stroke-width="5" paint-order="stroke" letter-spacing="1">287</text><path d="M660 44 c-8 -12 -24 -2 -12 10 l12 12 l12 -12 c12 -12 -4 -22 -12 -10z" fill="#ef4444" stroke="#1b1b3a" stroke-width="2.5"/><path d="M694 44 c-8 -12 -24 -2 -12 10 l12 12 l12 -12 c12 -12 -4 -22 -12 -10z" fill="#ef4444" stroke="#1b1b3a" stroke-width="2.5"/><path d="M728 44 c-8 -12 -24 -2 -12 10 l12 12 l12 -12 c12 -12 -4 -22 -12 -10z" fill="#ef4444" stroke="#1b1b3a" stroke-width="2.5"/></svg>
