<svg xmlns="http://www.w3.org/2000/svg" viewBox="0 0 800 500" width="800" height="500" font-family="'Noto Sans TC','Microsoft JhengHei','PingFang TC',sans-serif"><defs><filter id="sh" x="-10%" y="-10%" width="120%" height="130%"><feDropShadow dx="0" dy="6" stdDeviation="8" flood-color="#000" flood-opacity="0.28"/></filter><filter id="glow" x="-50%" y="-50%" width="200%" height="200%"><feGaussianBlur stdDeviation="6" result="b"/><feMerge><feMergeNode in="b"/><feMergeNode in="SourceGraphic"/></feMerge></filter><radialGradient id="neb1" cx="0.3" cy="0.3" r="0.5"><stop offset="0" stop-color="#7c3aed" stop-opacity="0.55"/><stop offset="1" stop-color="#7c3aed" stop-opacity="0"/></radialGradient><radialGradient id="neb2" cx="0.8" cy="0.7" r="0.5"><stop offset="0" stop-color="#0ea5e9" stop-opacity="0.4"/><stop offset="1" stop-color="#0ea5e9" stop-opacity="0"/></radialGradient></defs><rect x="0" y="0" width="800" height="500" rx="0" fill="#050816" /><rect x="0" y="0" width="800" height="500" rx="0" fill="url(#neb1)" /><rect x="0" y="0" width="800" height="500" rx="0" fill="url(#neb2)" /><circle cx="654" cy="57" r="0.5" fill="#fff" opacity="0.46"/><circle cx="228" cy="71" r="1.5" fill="#fff" opacity="0.76"/><circle cx="558" cy="44" r="1.3" fill="#fff" opacity="0.27"/><circle cx="95" cy="111" r="0.8" fill="#fff" opacity="0.70"/><circle cx="574" cy="101" r="1.4" fill="#fff" opacity="0.78"/><circle cx="429" cy="112" r="1.1" fill="#fff" opacity="0.46"/><circle cx="6" cy="388" r="1.5" fill="#fff" opacity="0.77"/><circle cx="348" cy="142" r="0.7" fill="#fff" opacity="0.97"/><circle cx="344" cy="52" r="0.6" fill="#fff" opacity="0.32"/><circle cx="352" cy="309" r="0.8" fill="#fff" opacity="0.28"/><circle cx="470" cy="274" r="0.7" fill="#fff" opacity="0.94"/><circle cx="80" cy="282" r="0.9" fill="#fff" opacity="0.72"/><circle cx="370" cy="295" r="0.7" fill="#fff" opacity="0.30"/><circle cx="677" cy="116" r="1.5" fill="#fff" opacity="0.99"/><circle cx="238" cy="443" r="0.6" fill="#fff" opacity="0.46"/><circle cx="650" cy="427" r="1.0" fill="#fff" opacity="0.53"/><circle cx="214" cy="343" r="0.8" fill="#fff" opacity="0.95"/><circle cx="663" cy="36" r="1.3" fill="#fff" opacity="0.38"/><circle cx="746" cy="125" r="0.7" fill="#fff" opacity="0.53"/><circle cx="655" cy="352" r="1.2" fill="#fff" opacity="0.76"/><circle cx="786" cy="397" r="0.6" fill="#fff" opacity="0.87"/><circle cx="323" cy="205" r="0.8" fill="#fff" opacity="0.41"/><circle cx="580" cy="448" r="1.4" fill="#fff" opacity="0.41"/><circle cx="511" cy="202" r="1.7" fill="#fff" opacity="0.73"/><circle cx="146" cy="135" r="0.7" fill="#fff" opacity="0.81"/><circle cx="551" cy="134" r="1.5" fill="#fff" opacity="0.57"/><circle cx="597" cy="204" r="1.0" fill="#fff" opacity="1.00"/><circle cx="141" cy="260" r="1.1" fill="#fff" opacity="0.82"/><circle cx="112" cy="78" r="1.3" fill="#fff" opacity="0.84"/><circle cx="432" cy="305" r="0.6" fill="#fff" opacity="0.54"/><circle cx="479" cy="270" r="0.8" fill="#fff" opacity="0.66"/><circle cx="11" cy="348" r="1.4" fill="#fff" opacity="0.76"/><circle cx="549" cy="384" r="0.8" fill="#fff" opacity="0.73"/><circle cx="114" cy="150" r="1.1" fill="#fff" opacity="0.59"/><circle cx="739" cy="448" r="1.4" fill="#fff" opacity="0.98"/><circle cx="780" cy="91" r="1.2" fill="#fff" opacity="0.33"/><circle cx="640" cy="152" r="1.6" fill="#fff" opacity="0.63"/><circle cx="203" cy="78" r="1.0" fill="#fff" opacity="0.37"/><circle cx="797" cy="472" r="1.2" fill="#fff" opacity="0.25"/><circle cx="331" cy="250" r="0.5" fill="#fff" opacity="0.95"/><circle cx="314" cy="122" r="0.6" fill="#fff" opacity="0.91"/><circle cx="80" cy="43" r="1.5" fill="#fff" opacity="0.86"/><circle cx="778" cy="272" r="1.5" fill="#fff" opacity="0.35"/><circle cx="486" cy="484" r="1.2" fill="#fff" opacity="0.45"/><circle cx="621" cy="216" r="1.8" fill="#fff" opacity="0.95"/><circle cx="773" cy="373" r="1.4" fill="#fff" opacity="0.78"/><circle cx="408" cy="343" r="1.3" fill="#fff" opacity="0.58"/><circle cx="529" cy="231" r="0.7" fill="#fff" opacity="0.42"/><circle cx="346" cy="10" r="1.3" fill="#fff" opacity="0.42"/><circle cx="225" cy="3" r="0.6" fill="#fff" opacity="0.72"/><circle cx="234" cy="34" r="1.7" fill="#fff" opacity="0.89"/><circle cx="72" cy="263" r="0.8" fill="#fff" opacity="0.75"/><circle cx="219" cy="276" r="0.7" fill="#fff" opacity="0.95"/><circle cx="584" cy="295" r="1.1" fill="#fff" opacity="0.84"/><circle cx="416" cy="97" r="0.6" fill="#fff" opacity="0.74"/><circle cx="362" cy="216" r="1.0" fill="#fff" opacity="0.90"/><circle cx="55" cy="344" r="1.3" fill="#fff" opacity="0.73"/><circle cx="62" cy="206" r="1.4" fill="#fff" opacity="0.85"/><circle cx="111" cy="127" r="0.7" fill="#fff" opacity="0.65"/><circle cx="143" cy="216" r="0.7" fill="#fff" opacity="0.60"/><circle cx="77" cy="226" r="1.6" fill="#fff" opacity="0.89"/><circle cx="100" cy="25" r="1.3" fill="#fff" opacity="0.66"/><circle cx="15" cy="496" r="0.6" fill="#fff" opacity="0.82"/><circle cx="242" cy="85" r="1.0" fill="#fff" opacity="0.61"/><circle cx="410" cy="462" r="0.6" fill="#fff" opacity="0.53"/><circle cx="399" cy="135" r="1.7" fill="#fff" opacity="0.84"/><circle cx="292" cy="216" r="1.4" fill="#fff" opacity="0.80"/><circle cx="569" cy="338" r="1.4" fill="#fff" opacity="0.37"/><circle cx="303" cy="111" r="1.8" fill="#fff" opacity="0.68"/><circle cx="555" cy="31" r="1.5" fill="#fff" opacity="0.29"/><circle cx="598" cy="244" r="1.2" fill="#fff" opacity="0.89"/><circle cx="161" cy="29" r="1.7" fill="#fff" opacity="0.31"/><circle cx="190" cy="35" r="1.3" fill="#fff" opacity="0.76"/><circle cx="240" cy="206" r="0.7" fill="#fff" opacity="0.92"/><circle cx="252" cy="296" r="1.3" fill="#fff" opacity="0.71"/><circle cx="429" cy="336" r="1.3" fill="#fff" opacity="0.64"/><circle cx="267" cy="104" r="1.4" fill="#fff" opacity="0.49"/><circle cx="271" cy="202" r="0.7" fill="#fff" opacity="0.73"/><circle cx="468" cy="161" r="1.7" fill="#fff" opacity="0.95"/><circle cx="9" cy="234" r="1.3" fill="#fff" opacity="0.67"/><circle cx="102" cy="37" r="1.2" fill="#fff" opacity="0.63"/><circle cx="135" cy="477" r="1.0" fill="#fff" opacity="0.30"/><circle cx="250" cy="189" r="0.9" fill="#fff" opacity="0.58"/><circle cx="556" cy="360" r="0.9" fill="#fff" opacity="0.99"/><circle cx="669" cy="270" r="0.5" fill="#fff" opacity="0.86"/><circle cx="306" cy="477" r="1.4" fill="#fff" opacity="0.95"/><circle cx="137" cy="135" r="0.7" fill="#fff" opacity="0.33"/><circle cx="566" cy="79" r="0.9" fill="#fff" opacity="0.70"/><circle cx="734" cy="175" r="0.8" fill="#fff" opacity="0.73"/><circle cx="270" cy="258" r="1.1" fill="#fff" opacity="0.93"/><circle cx="52" cy="47" r="1.3" fill="#fff" opacity="0.87"/><circle cx="45" cy="1" r="0.9" fill="#fff" opacity="0.35"/><circle cx="268" cy="82" r="1.5" fill="#fff" opacity="0.66"/><circle cx="437" cy="287" r="0.5" fill="#fff" opacity="0.31"/><circle cx="707" cy="462" r="0.7" fill="#fff" opacity="0.28"/><circle cx="378" cy="298" r="1.2" fill="#fff" opacity="0.57"/><circle cx="42" cy="157" r="1.0" fill="#fff" opacity="0.95"/><circle cx="40" cy="460" r="1.0" fill="#fff" opacity="0.76"/><circle cx="682" cy="52" r="1.0" fill="#fff" opacity="0.67"/><circle cx="416" cy="498" r="1.3" fill="#fff" opacity="0.37"/><circle cx="242" cy="442" r="0.7" fill="#fff" opacity="0.85"/><circle cx="181" cy="451" r="1.0" fill="#fff" opacity="0.38"/><circle cx="340" cy="400" r="1.7" fill="#fff" opacity="0.85"/><circle cx="752" cy="415" r="0.8" fill="#fff" opacity="0.37"/><circle cx="718" cy="55" r="1.0" fill="#fff" opacity="0.28"/><circle cx="481" cy="113" r="0.8" fill="#fff" opacity="0.94"/><circle cx="358" cy="156" r="1.6" fill="#fff" opacity="0.90"/><circle cx="228" cy="12" r="1.4" fill="#fff" opacity="0.55"/><circle cx="285" cy="442" r="0.6" fill="#fff" opacity="0.83"/><circle cx="359" cy="328" r="1.2" fill="#fff" opacity="0.76"/><circle cx="549" cy="169" r="1.7" fill="#fff" opacity="0.34"/><circle cx="267" cy="91" r="1.3" fill="#fff" opacity="0.99"/><circle cx="39" cy="55" r="1.3" fill="#fff" opacity="0.51"/><circle cx="321" cy="223" r="1.3" fill="#fff" opacity="0.63"/><circle cx="394" cy="460" r="1.2" fill="#fff" opacity="0.44"/><circle cx="725" cy="223" r="0.5" fill="#fff" opacity="0.94"/><circle cx="551" cy="351" r="1.4" fill="#fff" opacity="0.81"/><circle cx="686" cy="100" r="1.0" fill="#fff" opacity="0.30"/><circle cx="680" cy="471" r="0.9" fill="#fff" opacity="0.49"/><circle cx="127" cy="368" r="1.7" fill="#fff" opacity="0.63"/><rect x="0" y="0" width="800" height="500" rx="0" fill="#050816" opacity="0.5"/><text x="400" y="66" font-size="40" fill="#22d3ee" font-weight="900" text-anchor="middle" font-family="'JetBrains Mono',Consolas,'Courier New',monospace" stroke="#082f49" stroke-width="8" paint-order="stroke" stroke-linejoin="round">MISSION COMPLETE</text><text x="400" y="92" font-size="13" fill="#e0f2fe" font-weight="700" text-anchor="middle" >第 5 關 · 深淵戰艦 已擊破</text><g filter="url(#sh)"><rect x="60" y="116" width="330" height="340" rx="14" fill="#0f172a" /></g><rect x="60" y="116" width="330" height="340" rx="14" fill="none" stroke="#22d3ee"/><text x="84" y="150" font-size="15" fill="#e0f2fe" font-weight="900" text-anchor="start" >戰績</text><text x="84" y="186" font-size="12.5" fill="#94a3b8" font-weight="400" text-anchor="start" >分數</text><text x="366" y="186" font-size="16" fill="#fff" font-weight="900" text-anchor="end" font-family="'JetBrains Mono',Consolas,'Courier New',monospace" >0,384,200</text><line x1="84" y1="198" x2="366" y2="198" stroke="#1e293b" stroke-width="1" /><text x="84" y="222" font-size="12.5" fill="#94a3b8" font-weight="400" text-anchor="start" >擊墜數</text><text x="366" y="222" font-size="16" fill="#fff" font-weight="900" text-anchor="end" font-family="'JetBrains Mono',Consolas,'Courier New',monospace" >248</text><line x1="84" y1="234" x2="366" y2="234" stroke="#1e293b" stroke-width="1" /><text x="84" y="258" font-size="12.5" fill="#94a3b8" font-weight="400" text-anchor="start" >命中率</text><text x="366" y="258" font-size="16" fill="#fff" font-weight="900" text-anchor="end" font-family="'JetBrains Mono',Consolas,'Courier New',monospace" >87.4%</text><line x1="84" y1="270" x2="366" y2="270" stroke="#1e293b" stroke-width="1" /><text x="84" y="294" font-size="12.5" fill="#94a3b8" font-weight="400" text-anchor="start" >最大連擊</text><text x="366" y="294" font-size="16" fill="#fff" font-weight="900" text-anchor="end" font-family="'JetBrains Mono',Consolas,'Courier New',monospace" >× 96</text><line x1="84" y1="306" x2="366" y2="306" stroke="#1e293b" stroke-width="1" /><text x="84" y="330" font-size="12.5" fill="#94a3b8" font-weight="400" text-anchor="start" >受到傷害</text><text x="366" y="330" font-size="16" fill="#fff" font-weight="900" text-anchor="end" font-family="'JetBrains Mono',Consolas,'Courier New',monospace" >2 次</text><line x1="84" y1="342" x2="366" y2="342" stroke="#1e293b" stroke-width="1" /><text x="84" y="384" font-size="12.5" fill="#94a3b8" font-weight="400" text-anchor="start" >評價</text><text x="330" y="420" font-size="56" fill="#fde047" font-weight="900" text-anchor="middle" stroke="#7c2d12" stroke-width="6" paint-order="stroke" stroke-linejoin="round">S</text><rect x="84" y="404" width="150" height="32" rx="6" fill="#22d3ee" /><text x="159.0" y="424.68" font-size="13" fill="#082f49" font-weight="700" text-anchor="middle" >繼續 ▶</text><g filter="url(#sh)"><rect x="410" y="116" width="330" height="340" rx="14" fill="#0f172a" /></g><rect x="410" y="116" width="330" height="340" rx="14" fill="none" stroke="#a78bfa"/><text x="434" y="150" font-size="15" fill="#e9d5ff" font-weight="900" text-anchor="start" >全球排行榜</text><text x="716" y="150" font-size="11" fill="#a78bfa" font-weight="700" text-anchor="end" >本週</text><circle cx="446" cy="181" r="12" fill="#fde047" /><text x="446" y="186" font-size="11" fill="#0f172a" font-weight="900" text-anchor="middle" >1</text><text x="470" y="186" font-size="13" fill="#cbd5e1" font-weight="500" text-anchor="start" >NovaAce</text><text x="716" y="186" font-size="13" fill="#e2e8f0" font-weight="900" text-anchor="end" font-family="'JetBrains Mono',Consolas,'Courier New',monospace" >0,512,880</text><circle cx="446" cy="221" r="12" fill="#e5e7eb" /><text x="446" y="226" font-size="11" fill="#0f172a" font-weight="900" text-anchor="middle" >2</text><text x="470" y="226" font-size="13" fill="#cbd5e1" font-weight="500" text-anchor="start" >小隼</text><text x="716" y="226" font-size="13" fill="#e2e8f0" font-weight="900" text-anchor="end" font-family="'JetBrains Mono',Consolas,'Courier New',monospace" >0,498,120</text><circle cx="446" cy="261" r="12" fill="#d97706" /><text x="446" y="266" font-size="11" fill="#0f172a" font-weight="900" text-anchor="middle" >3</text><text x="470" y="266" font-size="13" fill="#cbd5e1" font-weight="500" text-anchor="start" >CometX</text><text x="716" y="266" font-size="13" fill="#e2e8f0" font-weight="900" text-anchor="end" font-family="'JetBrains Mono',Consolas,'Courier New',monospace" >0,431,600</text><rect x="422" y="284" width="306" height="34" rx="8" fill="#a78bfa" opacity="0.25"/><circle cx="446" cy="301" r="12" fill="#475569" /><text x="446" y="306" font-size="11" fill="#0f172a" font-weight="900" text-anchor="middle" >4</text><text x="470" y="306" font-size="13" fill="#fff" font-weight="900" text-anchor="start" >你</text><text x="716" y="306" font-size="13" fill="#fde047" font-weight="900" text-anchor="end" font-family="'JetBrains Mono',Consolas,'Courier New',monospace" >0,384,200</text><circle cx="446" cy="341" r="12" fill="#475569" /><text x="446" y="346" font-size="11" fill="#0f172a" font-weight="900" text-anchor="middle" >5</text><text x="470" y="346" font-size="13" fill="#cbd5e1" font-weight="500" text-anchor="start" >阿翔</text><text x="716" y="346" font-size="13" fill="#e2e8f0" font-weight="900" text-anchor="end" font-family="'JetBrains Mono',Consolas,'Courier New',monospace" >0,377,050</text><circle cx="446" cy="381" r="12" fill="#475569" /><text x="446" y="386" font-size="11" fill="#0f172a" font-weight="900" text-anchor="middle" >6</text><text x="470" y="386" font-size="13" fill="#cbd5e1" font-weight="500" text-anchor="start" >PixelPilot</text><text x="716" y="386" font-size="13" fill="#e2e8f0" font-weight="900" text-anchor="end" font-family="'JetBrains Mono',Consolas,'Courier New',monospace" >0,352,900</text></svg>
