<svg xmlns="http://www.w3.org/2000/svg" viewBox="0 0 800 500" width="800" height="500" font-family="'Noto Sans TC','Microsoft JhengHei','PingFang TC',sans-serif"><defs><filter id="sh" x="-10%" y="-10%" width="120%" height="130%"><feDropShadow dx="0" dy="6" stdDeviation="8" flood-color="#000" flood-opacity="0.28"/></filter><filter id="glow" x="-50%" y="-50%" width="200%" height="200%"><feGaussianBlur stdDeviation="6" result="b"/><feMerge><feMergeNode in="b"/><feMergeNode in="SourceGraphic"/></feMerge></filter><linearGradient id="lob" x1="0" y1="0" x2="1" y2="1"><stop offset="0" stop-color="#450a0a"/><stop offset="1" stop-color="#991b1b"/></linearGradient></defs><rect x="0" y="0" width="800" height="500" rx="0" fill="url(#lob)" /><text x="400" y="50" font-size="28" fill="#fbbf24" font-weight="900" text-anchor="middle" stroke="#450a0a" stroke-width="7" paint-order="stroke" stroke-linejoin="round">建立好友房</text><g filter="url(#sh)"><rect x="30" y="72" width="470" height="408" rx="16" fill="#2a0a0a" /></g><rect x="30" y="72" width="470" height="408" rx="16" fill="none" stroke="#fbbf24" stroke-opacity="0.6" stroke-width="2"/><text x="54" y="110" font-size="13" fill="#fde68a" font-weight="700" text-anchor="start" >局數</text><rect x="150" y="92" width="102" height="28" rx="14" fill="#4a1010" /><text x="201.0" y="110.32" font-size="12" fill="#fca5a5" font-weight="700" text-anchor="middle" >1 圈</text><rect x="262" y="92" width="102" height="28" rx="14" fill="#fbbf24" /><text x="313.0" y="110.32" font-size="12" fill="#450a0a" font-weight="700" text-anchor="middle" >4 圈</text><rect x="374" y="92" width="102" height="28" rx="14" fill="#4a1010" /><text x="425.0" y="110.32" font-size="12" fill="#fca5a5" font-weight="700" text-anchor="middle" >8 圈</text><text x="54" y="152" font-size="13" fill="#fde68a" font-weight="700" text-anchor="start" >底 / 台</text><rect x="150" y="134" width="102" height="28" rx="14" fill="#4a1010" /><text x="201.0" y="152.32" font-size="12" fill="#fca5a5" font-weight="700" text-anchor="middle" >100 / 20</text><rect x="262" y="134" width="102" height="28" rx="14" fill="#fbbf24" /><text x="313.0" y="152.32" font-size="12" fill="#450a0a" font-weight="700" text-anchor="middle" >300 / 100</text><rect x="374" y="134" width="102" height="28" rx="14" fill="#4a1010" /><text x="425.0" y="152.32" font-size="12" fill="#fca5a5" font-weight="700" text-anchor="middle" >500 / 200</text><text x="54" y="194" font-size="13" fill="#fde68a" font-weight="700" text-anchor="start" >思考時間</text><rect x="150" y="176" width="102" height="28" rx="14" fill="#4a1010" /><text x="201.0" y="194.32" font-size="12" fill="#fca5a5" font-weight="700" text-anchor="middle" >10 秒</text><rect x="262" y="176" width="102" height="28" rx="14" fill="#fbbf24" /><text x="313.0" y="194.32" font-size="12" fill="#450a0a" font-weight="700" text-anchor="middle" >15 秒</text><rect x="374" y="176" width="102" height="28" rx="14" fill="#4a1010" /><text x="425.0" y="194.32" font-size="12" fill="#fca5a5" font-weight="700" text-anchor="middle" >20 秒</text><text x="54" y="238" font-size="13" fill="#fde68a" font-weight="700" text-anchor="start" >規則設定</text><text x="150" y="242" font-size="12.5" fill="#fff" font-weight="400" text-anchor="start" >花牌</text><rect x="246" y="229" width="34" height="18" rx="9" fill="#f59e0b" /><circle cx="271" cy="238" r="7" fill="#fff" /><text x="318" y="242" font-size="12.5" fill="#fff" font-weight="400" text-anchor="start" >吃牌</text><rect x="414" y="229" width="34" height="18" rx="9" fill="#f59e0b" /><circle cx="439" cy="238" r="7" fill="#fff" /><text x="150" y="278" font-size="12.5" fill="#fff" font-weight="400" text-anchor="start" >搶槓胡</text><rect x="246" y="265" width="34" height="18" rx="9" fill="#f59e0b" /><circle cx="271" cy="274" r="7" fill="#fff" /><text x="318" y="278" font-size="12.5" fill="#fff" font-weight="400" text-anchor="start" >連莊拉莊</text><rect x="414" y="265" width="34" height="18" rx="9" fill="#f59e0b" /><circle cx="439" cy="274" r="7" fill="#fff" /><text x="150" y="314" font-size="12.5" fill="#fff" font-weight="400" text-anchor="start" >一炮多響</text><rect x="246" y="301" width="34" height="18" rx="9" fill="#cbd5e1" /><circle cx="255" cy="310" r="7" fill="#fff" /><text x="318" y="314" font-size="12.5" fill="#fff" font-weight="400" text-anchor="start" >相公</text><rect x="414" y="301" width="34" height="18" rx="9" fill="#f59e0b" /><circle cx="439" cy="310" r="7" fill="#fff" /><text x="54" y="352" font-size="11" fill="#94a3b8" font-weight="700" text-anchor="start" >房間密碼（選填）</text><rect x="54" y="360" width="210" height="32" rx="6" fill="#0f172a" stroke="#334155"/><text x="64" y="380.32" font-size="12" fill="#e2e8f0" font-weight="400" text-anchor="start" >••••</text><text x="290" y="360" font-size="11" fill="#94a3b8" font-weight="700" text-anchor="start" >觀戰</text><rect x="290" y="372" width="34" height="18" rx="9" fill="#cbd5e1" /><circle cx="299" cy="381" r="7" fill="#fff" /><text x="54" y="424" font-size="11" fill="#fca5a5" font-weight="400" text-anchor="start" >建立房間需消耗 房卡 × 1（剩餘 12 張）</text><rect x="300" y="432" width="180" height="36" rx="18" fill="#fbbf24" /><text x="390.0" y="455.4" font-size="15" fill="#450a0a" font-weight="700" text-anchor="middle" >建立房間</text><g filter="url(#sh)"><rect x="520" y="72" width="250" height="408" rx="16" fill="#2a0a0a" /></g><rect x="520" y="72" width="250" height="408" rx="16" fill="none" stroke="#fbbf24" stroke-opacity="0.6" stroke-width="2"/><text x="645" y="104" font-size="12" fill="#fca5a5" font-weight="700" text-anchor="middle" >房號</text><text x="645" y="140" font-size="32" fill="#fbbf24" font-weight="900" text-anchor="middle" font-family="'JetBrains Mono',Consolas,'Courier New',monospace" stroke="#450a0a" stroke-width="5" paint-order="stroke" stroke-linejoin="round">482 913</text><text x="645" y="164" font-size="11" fill="#fde68a" font-weight="400" text-anchor="middle" >4 圈 · 300/100 · 15 秒</text><rect x="540" y="184" width="210" height="44" rx="10" fill="#4a1010" /><text x="560" y="212" font-size="16" fill="#fbbf24" font-weight="900" text-anchor="middle" >東</text><circle cx="600" cy="206" r="14" fill="#f97316" /><text x="600" y="211" font-size="11" fill="#fff" font-weight="900" text-anchor="middle" >你</text><text x="622" y="211" font-size="12.5" fill="#fff" font-weight="700" text-anchor="start" >你（房主）</text><rect x="540" y="238" width="210" height="44" rx="10" fill="#4a1010" /><text x="560" y="266" font-size="16" fill="#fbbf24" font-weight="900" text-anchor="middle" >南</text><circle cx="600" cy="260" r="14" fill="#2563eb" /><text x="600" y="265" font-size="11" fill="#fff" font-weight="900" text-anchor="middle" >阿</text><text x="622" y="265" font-size="12.5" fill="#fff" font-weight="700" text-anchor="start" >阿明</text><rect x="540" y="292" width="210" height="44" rx="10" fill="#4a1010" /><text x="560" y="320" font-size="16" fill="#fbbf24" font-weight="900" text-anchor="middle" >西</text><circle cx="600" cy="314" r="14" fill="none" stroke="#fca5a5" stroke-dasharray="3 3"/><text x="622" y="319" font-size="12" fill="#fca5a5" font-weight="400" text-anchor="start" >等待加入…</text><rect x="540" y="346" width="210" height="44" rx="10" fill="#4a1010" /><text x="560" y="374" font-size="16" fill="#fbbf24" font-weight="900" text-anchor="middle" >北</text><circle cx="600" cy="368" r="14" fill="none" stroke="#fca5a5" stroke-dasharray="3 3"/><text x="622" y="373" font-size="12" fill="#fca5a5" font-weight="400" text-anchor="start" >等待加入…</text><rect x="540" y="412" width="210" height="36" rx="18" fill="#06c755" /><text x="645.0" y="434.68" font-size="13" fill="#fff" font-weight="700" text-anchor="middle" >邀請 LINE 好友</text><text x="645" y="466" font-size="10.5" fill="#fca5a5" font-weight="400" text-anchor="middle" >或分享房號給朋友</text></svg>
