<svg xmlns="http://www.w3.org/2000/svg" viewBox="0 0 800 500" width="800" height="500" font-family="'Noto Sans TC','Microsoft JhengHei','PingFang TC',sans-serif"><defs><filter id="sh" x="-10%" y="-10%" width="120%" height="130%"><feDropShadow dx="0" dy="6" stdDeviation="8" flood-color="#000" flood-opacity="0.28"/></filter><filter id="glow" x="-50%" y="-50%" width="200%" height="200%"><feGaussianBlur stdDeviation="6" result="b"/><feMerge><feMergeNode in="b"/><feMergeNode in="SourceGraphic"/></feMerge></filter></defs><rect x="0" y="36" width="800" height="464" rx="0" fill="#fff" /><rect x="0" y="0" width="800" height="36" rx="0" fill="#e5e7eb" /><circle cx="18" cy="18" r="6" fill="#ff5f57" /><circle cx="36" cy="18" r="6" fill="#febc2e" /><circle cx="54" cy="18" r="6" fill="#28c840" /><rect x="90" y="8" width="520" height="20" rx="10" fill="#ffffff" /><text x="106" y="22" font-size="11" fill="#6b7280" font-weight="400" text-anchor="start" >🔒 muri-interior.tw/blog/small-space-storage</text><rect x="0" y="36" width="800" height="52" rx="0" fill="#fff" /><line x1="0" y1="88" x2="800" y2="88" stroke="#eee" stroke-width="1" /><text x="32" y="68" font-size="18" fill="#222222" font-weight="900" text-anchor="start" letter-spacing="4">MURI</text><text x="98" y="68" font-size="12" fill="#222222" font-weight="500" text-anchor="start" >木日室內設計</text><text x="420" y="67" font-size="12" fill="#222222" font-weight="400" text-anchor="start" >作品案例</text><text x="492" y="67" font-size="12" fill="#222222" font-weight="400" text-anchor="start" >服務項目</text><text x="564" y="67" font-size="12" fill="#222222" font-weight="700" text-anchor="start" >設計日誌</text><rect x="564" y="75" width="48" height="2" rx="0" fill="#b5653f" /><text x="636" y="67" font-size="12" fill="#222222" font-weight="400" text-anchor="start" >關於我們</text><rect x="712" y="50" width="64" height="26" rx="2" fill="#b5653f" /><text x="744.0" y="66.96" font-size="11" fill="#fff" font-weight="700" text-anchor="middle" >聯絡</text><text x="40" y="112" font-size="10.5" fill="#999" font-weight="400" text-anchor="start" >首頁 / 設計日誌 / 收納技巧</text><rect x="40" y="122" width="56" height="18" rx="9.0" fill="#f3e2d8" /><text x="68.0" y="134.6" font-size="10" fill="#b5653f" font-weight="700" text-anchor="middle" >收納技巧</text><text x="40" y="168" font-size="24" fill="#222222" font-weight="900" text-anchor="start" >小坪數也能很寬敞：5 個收納設計重點</text><circle cx="54" cy="192" r="12" fill="#d9c7b0" /><text x="54" y="195.96" font-size="11" fill="#222222" font-weight="900" text-anchor="middle" >A</text><text x="74" y="196" font-size="11" fill="#777" font-weight="400" text-anchor="start" >設計師 Amber · 2026.09.28 · 閱讀 5 分鐘</text><svg x="40" y="212" width="520" height="120" viewBox="0 0 400 240" preserveAspectRatio="xMidYMid slice"><rect x="0" y="0" width="400" height="240" rx="0" fill="#e6e1ea" /><rect x="0" y="163" width="400" height="77" rx="0" fill="#b8aec4" /><line x1="0" y1="163" x2="400" y2="163" stroke="#00000022" stroke-width="2" /><rect x="230" y="26" width="120" height="100" rx="2" fill="#f8fbff" stroke="#ffffff" stroke-width="6"/><line x1="290" y1="26" x2="290" y2="126" stroke="#ffffff" stroke-width="4" /><line x1="230" y1="76" x2="350" y2="76" stroke="#ffffff" stroke-width="4" /><rect x="60" y="40" width="70" height="50" rx="2" fill="#c97b84" opacity="0.85"/><rect x="66" y="46" width="58" height="38" rx="1" fill="#f5f2ed" opacity="0.35"/><rect x="40" y="120" width="190" height="50" rx="14" fill="#4b3f63" /><rect x="30" y="104" width="210" height="34" rx="14" fill="#4b3f63" opacity="0.9"/><rect x="52" y="112" width="70" height="26" rx="8" fill="#ffffff" opacity="0.25"/><rect x="48" y="168" width="8" height="14" rx="0" fill="#3b3b3b" /><rect x="214" y="168" width="8" height="14" rx="0" fill="#3b3b3b" /><line x1="300" y1="98" x2="300" y2="182" stroke="#3b3b3b" stroke-width="3" /><path d="M280 98 h40 l-10 -26 h-20z" fill="#c97b84" /><rect x="355" y="150" width="26" height="30" rx="3" fill="#8b5e34" /><ellipse cx="362" cy="134" rx="10" ry="22" fill="#4d7c5a"/><ellipse cx="376" cy="138" rx="9" ry="18" fill="#5f9470"/><ellipse cx="130" cy="214" rx="100" ry="14" fill="#00000014"/><rect x="110" y="186" width="80" height="10" rx="3" fill="#6b4f3a" /></svg><text x="40" y="358" font-size="12.5" fill="#333" font-weight="400" text-anchor="start" >很多人以為小坪數就只能犧牲收納，其實只要掌握「垂直、隱藏、多功能」</text><text x="40" y="380" font-size="12.5" fill="#333" font-weight="400" text-anchor="start" >三個原則，12 坪也能住得舒適又整齊。以下整理我們最常用的 5 個做法。</text><text x="40" y="414" font-size="16" fill="#222222" font-weight="900" text-anchor="start" >1. 善用垂直空間</text><rect x="40" y="428" width="4" height="50" rx="0" fill="#b5653f" /><rect x="44" y="428" width="516" height="50" rx="0" fill="#faf6f1" /><text x="58" y="450" font-size="12.5" fill="#5a4636" font-weight="700" text-anchor="start" >「天花板到地板的整面高櫃，能比一般櫃體多出 40% 的收納量。」</text><text x="58" y="468" font-size="10.5" fill="#999" font-weight="400" text-anchor="start" >— 木日室內設計 Amber</text><rect x="588" y="112" width="180" height="198" rx="4" fill="#faf6f1" /><text x="604" y="138" font-size="13" fill="#222222" font-weight="900" text-anchor="start" >本文目錄</text><rect x="596" y="151" width="164" height="22" rx="2" fill="#f3e2d8" /><text x="606" y="166" font-size="11.5" fill="#b5653f" font-weight="700" text-anchor="start" >1. 善用垂直空間</text><text x="606" y="192" font-size="11.5" fill="#555" font-weight="400" text-anchor="start" >2. 隱藏式收納</text><text x="606" y="218" font-size="11.5" fill="#555" font-weight="400" text-anchor="start" >3. 多功能家具</text><text x="606" y="244" font-size="11.5" fill="#555" font-weight="400" text-anchor="start" >4. 畸零空間再利用</text><text x="606" y="270" font-size="11.5" fill="#555" font-weight="400" text-anchor="start" >5. 定期斷捨離</text><text x="588" y="342" font-size="12" fill="#222222" font-weight="900" text-anchor="start" >分享這篇文章</text><circle cx="604" cy="368" r="15" fill="#1877f2" /><text x="604" y="373" font-size="13" fill="#fff" font-weight="900" text-anchor="middle" >f</text><circle cx="644" cy="368" r="15" fill="#06c755" /><text x="644" y="373" font-size="13" fill="#fff" font-weight="900" text-anchor="middle" >L</text><circle cx="684" cy="368" r="15" fill="#555" /><text x="684" y="373" font-size="13" fill="#fff" font-weight="900" text-anchor="middle" >⧉</text><rect x="588" y="402" width="180" height="88" rx="4" fill="#222222" /><text x="604" y="428" font-size="13" fill="#fff" font-weight="900" text-anchor="start" >想打造這樣的家？</text><text x="604" y="448" font-size="10.5" fill="#bbb" font-weight="400" text-anchor="start" >免費到府丈量與報價</text><rect x="604" y="458" width="148" height="24" rx="2" fill="#b5653f" /><text x="678.0" y="473.96" font-size="11" fill="#fff" font-weight="700" text-anchor="middle" >預約諮詢 →</text></svg>
