<svg xmlns="http://www.w3.org/2000/svg" viewBox="0 0 800 500" width="800" height="500" font-family="'Noto Sans TC','Microsoft JhengHei','PingFang TC',sans-serif"><defs><filter id="sh" x="-10%" y="-10%" width="120%" height="130%"><feDropShadow dx="0" dy="6" stdDeviation="8" flood-color="#000" flood-opacity="0.28"/></filter><filter id="glow" x="-50%" y="-50%" width="200%" height="200%"><feGaussianBlur stdDeviation="6" result="b"/><feMerge><feMergeNode in="b"/><feMergeNode in="SourceGraphic"/></feMerge></filter></defs><rect x="0" y="36" width="800" height="464" rx="0" fill="#f5f5f7" /><rect x="0" y="0" width="800" height="36" rx="0" fill="#e5e7eb" /><circle cx="18" cy="18" r="6" fill="#ff5f57" /><circle cx="36" cy="18" r="6" fill="#febc2e" /><circle cx="54" cy="18" r="6" fill="#28c840" /><rect x="90" y="8" width="520" height="20" rx="10" fill="#ffffff" /><text x="106" y="22" font-size="11" fill="#6b7280" font-weight="400" text-anchor="start" >🔒 shoply.tw</text><rect x="0" y="36" width="800" height="50" rx="0" fill="#fff" /><text x="32" y="68" font-size="22" fill="#ff3d77" font-weight="900" text-anchor="start" letter-spacing="1">SHOPLY</text><rect x="170" y="48" width="390" height="26" rx="13" fill="#f3f4f6" /><text x="188" y="65" font-size="12" fill="#9ca3af" font-weight="400" text-anchor="start" >搜尋商品、品牌…</text><circle cx="545" cy="61" r="10" fill="#ff3d77" /><text x="640" y="66" font-size="12" fill="#374151" font-weight="500" text-anchor="start" >會員中心</text><text x="716" y="66" font-size="12" fill="#374151" font-weight="500" text-anchor="start" >購物車</text><circle cx="762" cy="52" r="8" fill="#ef4444" /><text x="762" y="56" font-size="10" fill="#fff" font-weight="700" text-anchor="middle" >3</text><text x="32" y="106" font-size="11" fill="#6b7280" font-weight="400" text-anchor="start" >首頁 / 3C 家電 / 耳機 / 降噪藍牙耳機 Pro</text><rect x="32" y="118" width="330" height="280" rx="16" fill="#ffe4e6" /><g transform="translate(197 252) scale(2.4)"><path d="M-34 10 v-12 a34 34 0 0 1 68 0 v12" stroke="#1f2937" stroke-width="8" fill="none"/><rect x="-44" y="0" width="20" height="34" rx="8" fill="#ff5a5f" /><rect x="24" y="0" width="20" height="34" rx="8" fill="#ff5a5f" /></g><rect x="32" y="410" width="76" height="70" rx="10" fill="#ffe4e6" stroke="#ff3d77" stroke-width="2"/><g transform="translate(70 442) scale(0.7)"><path d="M-34 10 v-12 a34 34 0 0 1 68 0 v12" stroke="#1f2937" stroke-width="8" fill="none"/><rect x="-44" y="0" width="20" height="34" rx="8" fill="#ff5a5f" /><rect x="24" y="0" width="20" height="34" rx="8" fill="#ff5a5f" /></g><rect x="118" y="410" width="76" height="70" rx="10" fill="#f3f4f6" /><g transform="translate(156 442) scale(0.7)"><path d="M-34 10 v-12 a34 34 0 0 1 68 0 v12" stroke="#1f2937" stroke-width="8" fill="none"/><rect x="-44" y="0" width="20" height="34" rx="8" fill="#ff5a5f" /><rect x="24" y="0" width="20" height="34" rx="8" fill="#ff5a5f" /></g><rect x="204" y="410" width="76" height="70" rx="10" fill="#fce7f3" /><g transform="translate(242 442) scale(0.7)"><path d="M-34 10 v-12 a34 34 0 0 1 68 0 v12" stroke="#1f2937" stroke-width="8" fill="none"/><rect x="-44" y="0" width="20" height="34" rx="8" fill="#ff5a5f" /><rect x="24" y="0" width="20" height="34" rx="8" fill="#ff5a5f" /></g><rect x="290" y="410" width="76" height="70" rx="10" fill="#e0e7ff" /><g transform="translate(328 442) scale(0.7)"><path d="M-34 10 v-12 a34 34 0 0 1 68 0 v12" stroke="#1f2937" stroke-width="8" fill="none"/><rect x="-44" y="0" width="20" height="34" rx="8" fill="#ff5a5f" /><rect x="24" y="0" width="20" height="34" rx="8" fill="#ff5a5f" /></g><rect x="392" y="122" width="65.0" height="18" rx="9.0" fill="#ef4444" /><text x="424.5" y="134.6" font-size="10" fill="#fff" font-weight="700" text-anchor="middle" >熱銷 No.1</text><text x="392" y="166" font-size="26" fill="#111827" font-weight="900" text-anchor="start" >降噪藍牙耳機 Pro</text><text x="392" y="192" font-size="12" fill="#f59e0b" font-weight="400" text-anchor="start" >★★★★★ 4.9 · 2,138 則評價 · 已售出 1.2 萬</text><rect x="392" y="206" width="376" height="64" rx="12" fill="#fff1f2" /><text x="408" y="248" font-size="28" fill="#ef4444" font-weight="900" text-anchor="start" >NT$ 1,990</text><text x="560" y="248" font-size="13" fill="#9ca3af" font-weight="400" text-anchor="start" text-decoration="line-through">$2,690</text><rect x="612" y="234" width="49.2" height="18" rx="9.0" fill="#ef4444" /><text x="636.6" y="246.6" font-size="10" fill="#fff" font-weight="700" text-anchor="middle" >省 26%</text><text x="392" y="298" font-size="12" fill="#374151" font-weight="700" text-anchor="start" >顏色</text><circle cx="452" cy="294" r="12" fill="#1f2937" stroke="#d1d5db"/><circle cx="452" cy="294" r="16" fill="none" stroke="#ff3d77" stroke-width="2"/><circle cx="488" cy="294" r="12" fill="#f9fafb" stroke="#d1d5db"/><circle cx="524" cy="294" r="12" fill="#f9a8d4" stroke="#d1d5db"/><circle cx="560" cy="294" r="12" fill="#1e3a8a" stroke="#d1d5db"/><text x="392" y="338" font-size="12" fill="#374151" font-weight="700" text-anchor="start" >數量</text><rect x="452" y="320" width="110" height="30" rx="6" fill="#fff" stroke="#d1d5db"/><text x="468" y="340" font-size="13" fill="#374151" font-weight="400" text-anchor="start" >－</text><text x="507" y="340" font-size="13" fill="#111827" font-weight="700" text-anchor="middle" >1</text><text x="540" y="340" font-size="13" fill="#374151" font-weight="400" text-anchor="start" >＋</text><text x="576" y="340" font-size="11" fill="#9ca3af" font-weight="400" text-anchor="start" >庫存 128 件</text><rect x="392" y="366" width="180" height="44" rx="10" fill="#fff1f2" stroke="#ff3d77"/><text x="482" y="393" font-size="14" fill="#ff3d77" font-weight="900" text-anchor="middle" >加入購物車</text><rect x="588" y="366" width="180" height="44" rx="10" fill="#ff3d77" /><text x="678.0" y="393.04" font-size="14" fill="#fff" font-weight="700" text-anchor="middle" >直接購買</text><text x="392" y="438" font-size="11.5" fill="#059669" font-weight="700" text-anchor="start" >✓ 24 小時快速到貨    ✓ 7 天鑑賞期    ✓ 一年保固</text><text x="392" y="462" font-size="11" fill="#6b7280" font-weight="400" text-anchor="start" >付款方式：信用卡 / LINE Pay / 超商取貨付款 / ATM 轉帳</text></svg>
