<svg xmlns="http://www.w3.org/2000/svg" viewBox="0 0 800 500" width="800" height="500" font-family="'Noto Sans TC','Microsoft JhengHei','PingFang TC',sans-serif"><defs><filter id="sh" x="-10%" y="-10%" width="120%" height="130%"><feDropShadow dx="0" dy="6" stdDeviation="8" flood-color="#000" flood-opacity="0.28"/></filter><filter id="glow" x="-50%" y="-50%" width="200%" height="200%"><feGaussianBlur stdDeviation="6" result="b"/><feMerge><feMergeNode in="b"/><feMergeNode in="SourceGraphic"/></feMerge></filter></defs><rect x="0" y="36" width="800" height="464" rx="0" fill="#f5f5f7" /><rect x="0" y="0" width="800" height="36" rx="0" fill="#e5e7eb" /><circle cx="18" cy="18" r="6" fill="#ff5f57" /><circle cx="36" cy="18" r="6" fill="#febc2e" /><circle cx="54" cy="18" r="6" fill="#28c840" /><rect x="90" y="8" width="520" height="20" rx="10" fill="#ffffff" /><text x="106" y="22" font-size="11" fill="#6b7280" font-weight="400" text-anchor="start" >🔒 shoply.tw</text><rect x="0" y="36" width="800" height="50" rx="0" fill="#fff" /><text x="32" y="68" font-size="22" fill="#ff3d77" font-weight="900" text-anchor="start" letter-spacing="1">SHOPLY</text><rect x="170" y="48" width="390" height="26" rx="13" fill="#f3f4f6" /><text x="188" y="65" font-size="12" fill="#9ca3af" font-weight="400" text-anchor="start" >搜尋商品、品牌…</text><circle cx="545" cy="61" r="10" fill="#ff3d77" /><text x="640" y="66" font-size="12" fill="#374151" font-weight="500" text-anchor="start" >會員中心</text><text x="716" y="66" font-size="12" fill="#374151" font-weight="500" text-anchor="start" >購物車</text><circle cx="762" cy="52" r="8" fill="#ef4444" /><text x="762" y="56" font-size="10" fill="#fff" font-weight="700" text-anchor="middle" >3</text><line x1="220" y1="108" x2="340" y2="108" stroke="#ff3d77" stroke-width="3" /><line x1="340" y1="108" x2="460" y2="108" stroke="#e5e7eb" stroke-width="3" /><line x1="460" y1="108" x2="580" y2="108" stroke="#e5e7eb" stroke-width="3" /><circle cx="220" cy="108" r="11" fill="#ff3d77" /><text x="220" y="112" font-size="11" fill="#fff" font-weight="900" text-anchor="middle" >✓</text><text x="220" y="134" font-size="11" fill="#6b7280" font-weight="400" text-anchor="middle" >購物車</text><circle cx="340" cy="108" r="11" fill="#ff3d77" /><text x="340" y="112" font-size="11" fill="#fff" font-weight="900" text-anchor="middle" >2</text><text x="340" y="134" font-size="11" fill="#111827" font-weight="700" text-anchor="middle" >付款與運送</text><circle cx="460" cy="108" r="11" fill="#e5e7eb" /><text x="460" y="112" font-size="11" fill="#9ca3af" font-weight="900" text-anchor="middle" >3</text><text x="460" y="134" font-size="11" fill="#6b7280" font-weight="400" text-anchor="middle" >確認訂單</text><circle cx="580" cy="108" r="11" fill="#e5e7eb" /><text x="580" y="112" font-size="11" fill="#9ca3af" font-weight="900" text-anchor="middle" >4</text><text x="580" y="134" font-size="11" fill="#6b7280" font-weight="400" text-anchor="middle" >完成</text><g filter="url(#sh)"><rect x="32" y="150" width="470" height="330" rx="14" fill="#fff" /></g><text x="50" y="180" font-size="15" fill="#111827" font-weight="900" text-anchor="start" >購物車（3 件商品）</text><rect x="50" y="198" width="60" height="60" rx="8" fill="#ffe4e6" /><g transform="translate(80 228) scale(0.55)"><path d="M-34 10 v-12 a34 34 0 0 1 68 0 v12" stroke="#1f2937" stroke-width="8" fill="none"/><rect x="-44" y="0" width="20" height="34" rx="8" fill="#ff5a5f" /><rect x="24" y="0" width="20" height="34" rx="8" fill="#ff5a5f" /></g><text x="124" y="220" font-size="13" fill="#111827" font-weight="700" text-anchor="start" >降噪藍牙耳機 Pro</text><text x="124" y="240" font-size="11" fill="#9ca3af" font-weight="400" text-anchor="start" >顏色：黑</text><rect x="300" y="214" width="84" height="26" rx="6" fill="#fff" stroke="#e5e7eb"/><text x="314" y="232" font-size="12" fill="#6b7280" font-weight="400" text-anchor="start" >－</text><text x="342" y="232" font-size="12" fill="#111827" font-weight="700" text-anchor="middle" >1</text><text x="366" y="232" font-size="12" fill="#6b7280" font-weight="400" text-anchor="start" >＋</text><text x="470" y="232" font-size="13" fill="#ef4444" font-weight="900" text-anchor="end" >NT$ 1,990</text><text x="488" y="232" font-size="11" fill="#d1d5db" font-weight="400" text-anchor="middle" >✕</text><line x1="50" y1="266" x2="484" y2="266" stroke="#f3f4f6" stroke-width="1" /><rect x="50" y="272" width="60" height="60" rx="8" fill="#e0f2fe" /><g transform="translate(80 302) scale(0.55)"><rect x="-14" y="-44" width="28" height="88" rx="8" fill="#334155" /><circle cx="0" cy="0" r="28" fill="#0f172a" stroke="#94a3b8" stroke-width="4"/><path d="M0 0 v-16 M0 0 h12" stroke="#22d3ee" stroke-width="3" stroke-linecap="round"/></g><text x="124" y="294" font-size="13" fill="#111827" font-weight="700" text-anchor="start" >智慧運動手錶 S2</text><text x="124" y="314" font-size="11" fill="#9ca3af" font-weight="400" text-anchor="start" >錶帶：灰</text><rect x="300" y="288" width="84" height="26" rx="6" fill="#fff" stroke="#e5e7eb"/><text x="314" y="306" font-size="12" fill="#6b7280" font-weight="400" text-anchor="start" >－</text><text x="342" y="306" font-size="12" fill="#111827" font-weight="700" text-anchor="middle" >1</text><text x="366" y="306" font-size="12" fill="#6b7280" font-weight="400" text-anchor="start" >＋</text><text x="470" y="306" font-size="13" fill="#ef4444" font-weight="900" text-anchor="end" >NT$ 3,480</text><text x="488" y="306" font-size="11" fill="#d1d5db" font-weight="400" text-anchor="middle" >✕</text><line x1="50" y1="340" x2="484" y2="340" stroke="#f3f4f6" stroke-width="1" /><rect x="50" y="346" width="60" height="60" rx="8" fill="#dcfce7" /><g transform="translate(80 376) scale(0.55)"><path d="M-22 8 h44 l-6 34 h-32 z" fill="#c2410c"/><ellipse cx="-14" cy="-14" rx="10" ry="24" fill="#16a34a" transform="rotate(-25 -14 -14)"/><ellipse cx="14" cy="-14" rx="10" ry="24" fill="#22c55e" transform="rotate(25 14 -14)"/><ellipse cx="0" cy="-24" rx="9" ry="22" fill="#15803d"/></g><text x="124" y="368" font-size="13" fill="#111827" font-weight="700" text-anchor="start" >療癒桌上型盆栽</text><text x="124" y="388" font-size="11" fill="#9ca3af" font-weight="400" text-anchor="start" >款式：圓盆</text><rect x="300" y="362" width="84" height="26" rx="6" fill="#fff" stroke="#e5e7eb"/><text x="314" y="380" font-size="12" fill="#6b7280" font-weight="400" text-anchor="start" >－</text><text x="342" y="380" font-size="12" fill="#111827" font-weight="700" text-anchor="middle" >2</text><text x="366" y="380" font-size="12" fill="#6b7280" font-weight="400" text-anchor="start" >＋</text><text x="470" y="380" font-size="13" fill="#ef4444" font-weight="900" text-anchor="end" >NT$ 390</text><text x="488" y="380" font-size="11" fill="#d1d5db" font-weight="400" text-anchor="middle" >✕</text><line x1="50" y1="414" x2="484" y2="414" stroke="#f3f4f6" stroke-width="1" /><text x="50" y="446" font-size="12" fill="#374151" font-weight="700" text-anchor="start" >優惠券</text><rect x="106" y="428" width="150" height="26" rx="6" fill="#f9fafb" stroke="#e5e7eb"/><text x="116" y="446" font-size="12" fill="#111827" font-weight="700" text-anchor="start" font-family="'JetBrains Mono',Consolas,'Courier New',monospace" >DOUBLE11</text><rect x="268" y="432" width="86.6" height="18" rx="9.0" fill="#dcfce7" /><text x="311.3" y="444.6" font-size="10" fill="#15803d" font-weight="700" text-anchor="middle" >已折抵 NT$100</text><g filter="url(#sh)"><rect x="518" y="150" width="250" height="330" rx="14" fill="#fff" /></g><text x="536" y="180" font-size="15" fill="#111827" font-weight="900" text-anchor="start" >付款方式</text><circle cx="544" cy="206" r="7" fill="#fff" stroke="#ff3d77" stroke-width="2"/><circle cx="544" cy="206" r="3.5" fill="#ff3d77" /><text x="558" y="210" font-size="12" fill="#374151" font-weight="400" text-anchor="start" >信用卡（一次付清）</text><circle cx="544" cy="234" r="7" fill="#fff" stroke="#94a3b8" stroke-width="1"/><text x="558" y="238" font-size="12" fill="#374151" font-weight="400" text-anchor="start" >LINE Pay</text><circle cx="544" cy="262" r="7" fill="#fff" stroke="#94a3b8" stroke-width="1"/><text x="558" y="266" font-size="12" fill="#374151" font-weight="400" text-anchor="start" >超商取貨付款</text><circle cx="544" cy="290" r="7" fill="#fff" stroke="#94a3b8" stroke-width="1"/><text x="558" y="294" font-size="12" fill="#374151" font-weight="400" text-anchor="start" >ATM 轉帳</text><text x="536" y="334" font-size="12" fill="#6b7280" font-weight="400" text-anchor="start" >小計</text><text x="750" y="334" font-size="12" fill="#111827" font-weight="700" text-anchor="end" >NT$ 6,250</text><text x="536" y="358" font-size="12" fill="#6b7280" font-weight="400" text-anchor="start" >運費</text><text x="750" y="358" font-size="12" fill="#15803d" font-weight="700" text-anchor="end" >免運</text><text x="536" y="382" font-size="12" fill="#6b7280" font-weight="400" text-anchor="start" >折扣</text><text x="750" y="382" font-size="12" fill="#15803d" font-weight="700" text-anchor="end" >- NT$ 100</text><line x1="536" y1="398" x2="750" y2="398" stroke="#e5e7eb" stroke-width="1" /><text x="536" y="424" font-size="13" fill="#111827" font-weight="900" text-anchor="start" >總計</text><text x="750" y="426" font-size="20" fill="#ef4444" font-weight="900" text-anchor="end" >NT$ 6,150</text><rect x="536" y="438" width="214" height="34" rx="8" fill="#ff3d77" /><text x="643.0" y="459.32" font-size="12" fill="#fff" font-weight="700" text-anchor="middle" >前往結帳</text></svg>
