<svg xmlns="http://www.w3.org/2000/svg" viewBox="0 0 800 500" width="800" height="500" font-family="'Noto Sans TC','Microsoft JhengHei','PingFang TC',sans-serif"><defs><filter id="sh" x="-10%" y="-10%" width="120%" height="130%"><feDropShadow dx="0" dy="6" stdDeviation="8" flood-color="#000" flood-opacity="0.28"/></filter><filter id="glow" x="-50%" y="-50%" width="200%" height="200%"><feGaussianBlur stdDeviation="6" result="b"/><feMerge><feMergeNode in="b"/><feMergeNode in="SourceGraphic"/></feMerge></filter></defs><rect x="0" y="0" width="800" height="500" rx="0" fill="#0d1117" /><text x="24" y="36" font-size="18" fill="#e6edf3" font-weight="900" text-anchor="start" >交易明細</text><text x="112" y="36" font-size="12" fill="#8b949e" font-weight="400" text-anchor="start" >共 142 筆 · 2020/01 – 2026/09</text><rect x="24" y="52" width="78.52" height="24" rx="12" fill="#22c55e" opacity="0.15"/><text x="63.26" y="68" font-size="11" fill="#22c55e" font-weight="700" text-anchor="middle" >獲利 83 筆</text><rect x="110.52" y="52" width="78.52" height="24" rx="12" fill="#ef4444" opacity="0.15"/><text x="149.78" y="68" font-size="11" fill="#ef4444" font-weight="700" text-anchor="middle" >虧損 59 筆</text><rect x="197.04" y="52" width="102.28" height="24" rx="12" fill="#22c55e" opacity="0.15"/><text x="248.18" y="68" font-size="11" fill="#22c55e" font-weight="700" text-anchor="middle" >平均獲利 +4.8%</text><rect x="307.32" y="52" width="102.28" height="24" rx="12" fill="#ef4444" opacity="0.15"/><text x="358.46" y="68" font-size="11" fill="#ef4444" font-weight="700" text-anchor="middle" >平均虧損 -2.1%</text><rect x="24" y="88" width="500" height="390" rx="10" fill="#0f141b" stroke="#21262d"/><rect x="32" y="96" width="484" height="26" rx="4" fill="#161b22" /><text x="42" y="113.0" font-size="11" fill="#8b949e" font-weight="700" text-anchor="start" >#</text><text x="82" y="113.0" font-size="11" fill="#8b949e" font-weight="700" text-anchor="start" >進場日期</text><text x="174" y="113.0" font-size="11" fill="#8b949e" font-weight="700" text-anchor="start" >持有</text><text x="238" y="113.0" font-size="11" fill="#8b949e" font-weight="700" text-anchor="start" >方向</text><text x="344" y="113.0" font-size="11" fill="#8b949e" font-weight="700" text-anchor="end" >進場價</text><text x="420" y="113.0" font-size="11" fill="#8b949e" font-weight="700" text-anchor="end" >出場價</text><text x="506" y="113.0" font-size="11" fill="#8b949e" font-weight="700" text-anchor="end" >損益</text><text x="42" y="139.5" font-size="11" fill="#e6edf3" font-weight="400" text-anchor="start" >142</text><text x="82" y="139.5" font-size="11" fill="#e6edf3" font-weight="400" text-anchor="start" >2026/09/17</text><text x="174" y="139.5" font-size="11" fill="#e6edf3" font-weight="400" text-anchor="start" >9 天</text><rect x="238" y="127.46000000000001" width="22" height="16" rx="4" fill="#d2a8ff" opacity="0.2"/><text x="249" y="139.46" font-size="10.5" fill="#d2a8ff" font-weight="700" text-anchor="middle" >空</text><text x="344" y="139.5" font-size="11" fill="#e6edf3" font-weight="400" text-anchor="end" font-family="'JetBrains Mono',Consolas,'Courier New',monospace" >22,527</text><text x="420" y="139.5" font-size="11" fill="#e6edf3" font-weight="400" text-anchor="end" font-family="'JetBrains Mono',Consolas,'Courier New',monospace" >24,239</text><text x="506" y="139.46" font-size="11" fill="#22c55e" font-weight="700" text-anchor="end" >+7.6%</text><line x1="32" y1="149" x2="516" y2="149" stroke="#21262d" stroke-width="1" /><text x="42" y="166.5" font-size="11" fill="#e6edf3" font-weight="400" text-anchor="start" >141</text><text x="82" y="166.5" font-size="11" fill="#e6edf3" font-weight="400" text-anchor="start" >2026/09/20</text><text x="174" y="166.5" font-size="11" fill="#e6edf3" font-weight="400" text-anchor="start" >11 天</text><rect x="238" y="154.46" width="22" height="16" rx="4" fill="#d2a8ff" opacity="0.2"/><text x="249" y="166.46" font-size="10.5" fill="#d2a8ff" font-weight="700" text-anchor="middle" >空</text><text x="344" y="166.5" font-size="11" fill="#e6edf3" font-weight="400" text-anchor="end" font-family="'JetBrains Mono',Consolas,'Courier New',monospace" >18,740</text><text x="420" y="166.5" font-size="11" fill="#e6edf3" font-weight="400" text-anchor="end" font-family="'JetBrains Mono',Consolas,'Courier New',monospace" >20,520</text><text x="506" y="166.46" font-size="11" fill="#22c55e" font-weight="700" text-anchor="end" >+9.5%</text><line x1="32" y1="176" x2="516" y2="176" stroke="#21262d" stroke-width="1" /><text x="42" y="193.5" font-size="11" fill="#e6edf3" font-weight="400" text-anchor="start" >140</text><text x="82" y="193.5" font-size="11" fill="#e6edf3" font-weight="400" text-anchor="start" >2026/08/25</text><text x="174" y="193.5" font-size="11" fill="#e6edf3" font-weight="400" text-anchor="start" >8 天</text><rect x="238" y="181.46" width="22" height="16" rx="4" fill="#58a6ff" opacity="0.2"/><text x="249" y="193.46" font-size="10.5" fill="#58a6ff" font-weight="700" text-anchor="middle" >多</text><text x="344" y="193.5" font-size="11" fill="#e6edf3" font-weight="400" text-anchor="end" font-family="'JetBrains Mono',Consolas,'Courier New',monospace" >18,389</text><text x="420" y="193.5" font-size="11" fill="#e6edf3" font-weight="400" text-anchor="end" font-family="'JetBrains Mono',Consolas,'Courier New',monospace" >19,179</text><text x="506" y="193.46" font-size="11" fill="#22c55e" font-weight="700" text-anchor="end" >+4.3%</text><line x1="32" y1="203" x2="516" y2="203" stroke="#21262d" stroke-width="1" /><text x="42" y="220.5" font-size="11" fill="#e6edf3" font-weight="400" text-anchor="start" >139</text><text x="82" y="220.5" font-size="11" fill="#e6edf3" font-weight="400" text-anchor="start" >2026/08/07</text><text x="174" y="220.5" font-size="11" fill="#e6edf3" font-weight="400" text-anchor="start" >6 天</text><rect x="238" y="208.46" width="22" height="16" rx="4" fill="#d2a8ff" opacity="0.2"/><text x="249" y="220.46" font-size="10.5" fill="#d2a8ff" font-weight="700" text-anchor="middle" >空</text><text x="344" y="220.5" font-size="11" fill="#e6edf3" font-weight="400" text-anchor="end" font-family="'JetBrains Mono',Consolas,'Courier New',monospace" >17,303</text><text x="420" y="220.5" font-size="11" fill="#e6edf3" font-weight="400" text-anchor="end" font-family="'JetBrains Mono',Consolas,'Courier New',monospace" >17,441</text><text x="506" y="220.46" font-size="11" fill="#22c55e" font-weight="700" text-anchor="end" >+0.8%</text><line x1="32" y1="230" x2="516" y2="230" stroke="#21262d" stroke-width="1" /><text x="42" y="247.5" font-size="11" fill="#e6edf3" font-weight="400" text-anchor="start" >138</text><text x="82" y="247.5" font-size="11" fill="#e6edf3" font-weight="400" text-anchor="start" >2026/07/14</text><text x="174" y="247.5" font-size="11" fill="#e6edf3" font-weight="400" text-anchor="start" >8 天</text><rect x="238" y="235.46" width="22" height="16" rx="4" fill="#d2a8ff" opacity="0.2"/><text x="249" y="247.46" font-size="10.5" fill="#d2a8ff" font-weight="700" text-anchor="middle" >空</text><text x="344" y="247.5" font-size="11" fill="#e6edf3" font-weight="400" text-anchor="end" font-family="'JetBrains Mono',Consolas,'Courier New',monospace" >15,207</text><text x="420" y="247.5" font-size="11" fill="#e6edf3" font-weight="400" text-anchor="end" font-family="'JetBrains Mono',Consolas,'Courier New',monospace" >14,583</text><text x="506" y="247.46" font-size="11" fill="#ef4444" font-weight="700" text-anchor="end" >-4.1%</text><line x1="32" y1="257" x2="516" y2="257" stroke="#21262d" stroke-width="1" /><text x="42" y="274.5" font-size="11" fill="#e6edf3" font-weight="400" text-anchor="start" >137</text><text x="82" y="274.5" font-size="11" fill="#e6edf3" font-weight="400" text-anchor="start" >2026/07/22</text><text x="174" y="274.5" font-size="11" fill="#e6edf3" font-weight="400" text-anchor="start" >30 天</text><rect x="238" y="262.46" width="22" height="16" rx="4" fill="#58a6ff" opacity="0.2"/><text x="249" y="274.46" font-size="10.5" fill="#58a6ff" font-weight="700" text-anchor="middle" >多</text><text x="344" y="274.5" font-size="11" fill="#e6edf3" font-weight="400" text-anchor="end" font-family="'JetBrains Mono',Consolas,'Courier New',monospace" >20,489</text><text x="420" y="274.5" font-size="11" fill="#e6edf3" font-weight="400" text-anchor="end" font-family="'JetBrains Mono',Consolas,'Courier New',monospace" >18,993</text><text x="506" y="274.46" font-size="11" fill="#ef4444" font-weight="700" text-anchor="end" >-7.3%</text><line x1="32" y1="284" x2="516" y2="284" stroke="#21262d" stroke-width="1" /><text x="42" y="301.5" font-size="11" fill="#e6edf3" font-weight="400" text-anchor="start" >136</text><text x="82" y="301.5" font-size="11" fill="#e6edf3" font-weight="400" text-anchor="start" >2026/06/25</text><text x="174" y="301.5" font-size="11" fill="#e6edf3" font-weight="400" text-anchor="start" >16 天</text><rect x="238" y="289.46" width="22" height="16" rx="4" fill="#58a6ff" opacity="0.2"/><text x="249" y="301.46" font-size="10.5" fill="#58a6ff" font-weight="700" text-anchor="middle" >多</text><text x="344" y="301.5" font-size="11" fill="#e6edf3" font-weight="400" text-anchor="end" font-family="'JetBrains Mono',Consolas,'Courier New',monospace" >20,658</text><text x="420" y="301.5" font-size="11" fill="#e6edf3" font-weight="400" text-anchor="end" font-family="'JetBrains Mono',Consolas,'Courier New',monospace" >22,228</text><text x="506" y="301.46" font-size="11" fill="#22c55e" font-weight="700" text-anchor="end" >+7.6%</text><line x1="32" y1="311" x2="516" y2="311" stroke="#21262d" stroke-width="1" /><text x="42" y="328.5" font-size="11" fill="#e6edf3" font-weight="400" text-anchor="start" >135</text><text x="82" y="328.5" font-size="11" fill="#e6edf3" font-weight="400" text-anchor="start" >2026/06/05</text><text x="174" y="328.5" font-size="11" fill="#e6edf3" font-weight="400" text-anchor="start" >14 天</text><rect x="238" y="316.46" width="22" height="16" rx="4" fill="#d2a8ff" opacity="0.2"/><text x="249" y="328.46" font-size="10.5" fill="#d2a8ff" font-weight="700" text-anchor="middle" >空</text><text x="344" y="328.5" font-size="11" fill="#e6edf3" font-weight="400" text-anchor="end" font-family="'JetBrains Mono',Consolas,'Courier New',monospace" >20,394</text><text x="420" y="328.5" font-size="11" fill="#e6edf3" font-weight="400" text-anchor="end" font-family="'JetBrains Mono',Consolas,'Courier New',monospace" >21,964</text><text x="506" y="328.46" font-size="11" fill="#22c55e" font-weight="700" text-anchor="end" >+7.7%</text><line x1="32" y1="338" x2="516" y2="338" stroke="#21262d" stroke-width="1" /><text x="42" y="355.5" font-size="11" fill="#e6edf3" font-weight="400" text-anchor="start" >134</text><text x="82" y="355.5" font-size="11" fill="#e6edf3" font-weight="400" text-anchor="start" >2026/05/15</text><text x="174" y="355.5" font-size="11" fill="#e6edf3" font-weight="400" text-anchor="start" >2 天</text><rect x="238" y="343.46" width="22" height="16" rx="4" fill="#58a6ff" opacity="0.2"/><text x="249" y="355.46" font-size="10.5" fill="#58a6ff" font-weight="700" text-anchor="middle" >多</text><text x="344" y="355.5" font-size="11" fill="#e6edf3" font-weight="400" text-anchor="end" font-family="'JetBrains Mono',Consolas,'Courier New',monospace" >21,505</text><text x="420" y="355.5" font-size="11" fill="#e6edf3" font-weight="400" text-anchor="end" font-family="'JetBrains Mono',Consolas,'Courier New',monospace" >21,182</text><text x="506" y="355.46" font-size="11" fill="#ef4444" font-weight="700" text-anchor="end" >-1.5%</text><line x1="32" y1="365" x2="516" y2="365" stroke="#21262d" stroke-width="1" /><text x="42" y="382.5" font-size="11" fill="#e6edf3" font-weight="400" text-anchor="start" >133</text><text x="82" y="382.5" font-size="11" fill="#e6edf3" font-weight="400" text-anchor="start" >2026/05/12</text><text x="174" y="382.5" font-size="11" fill="#e6edf3" font-weight="400" text-anchor="start" >33 天</text><rect x="238" y="370.46" width="22" height="16" rx="4" fill="#58a6ff" opacity="0.2"/><text x="249" y="382.46" font-size="10.5" fill="#58a6ff" font-weight="700" text-anchor="middle" >多</text><text x="344" y="382.5" font-size="11" fill="#e6edf3" font-weight="400" text-anchor="end" font-family="'JetBrains Mono',Consolas,'Courier New',monospace" >22,193</text><text x="420" y="382.5" font-size="11" fill="#e6edf3" font-weight="400" text-anchor="end" font-family="'JetBrains Mono',Consolas,'Courier New',monospace" >23,347</text><text x="506" y="382.46" font-size="11" fill="#22c55e" font-weight="700" text-anchor="end" >+5.2%</text><line x1="32" y1="392" x2="516" y2="392" stroke="#21262d" stroke-width="1" /><text x="42" y="409.5" font-size="11" fill="#e6edf3" font-weight="400" text-anchor="start" >132</text><text x="82" y="409.5" font-size="11" fill="#e6edf3" font-weight="400" text-anchor="start" >2026/04/01</text><text x="174" y="409.5" font-size="11" fill="#e6edf3" font-weight="400" text-anchor="start" >7 天</text><rect x="238" y="397.46" width="22" height="16" rx="4" fill="#58a6ff" opacity="0.2"/><text x="249" y="409.46" font-size="10.5" fill="#58a6ff" font-weight="700" text-anchor="middle" >多</text><text x="344" y="409.5" font-size="11" fill="#e6edf3" font-weight="400" text-anchor="end" font-family="'JetBrains Mono',Consolas,'Courier New',monospace" >18,012</text><text x="420" y="409.5" font-size="11" fill="#e6edf3" font-weight="400" text-anchor="end" font-family="'JetBrains Mono',Consolas,'Courier New',monospace" >19,543</text><text x="506" y="409.46" font-size="11" fill="#22c55e" font-weight="700" text-anchor="end" >+8.5%</text><line x1="32" y1="419" x2="516" y2="419" stroke="#21262d" stroke-width="1" /><text x="42" y="436.5" font-size="11" fill="#e6edf3" font-weight="400" text-anchor="start" >131</text><text x="82" y="436.5" font-size="11" fill="#e6edf3" font-weight="400" text-anchor="start" >2026/04/16</text><text x="174" y="436.5" font-size="11" fill="#e6edf3" font-weight="400" text-anchor="start" >10 天</text><rect x="238" y="424.46" width="22" height="16" rx="4" fill="#d2a8ff" opacity="0.2"/><text x="249" y="436.46" font-size="10.5" fill="#d2a8ff" font-weight="700" text-anchor="middle" >空</text><text x="344" y="436.5" font-size="11" fill="#e6edf3" font-weight="400" text-anchor="end" font-family="'JetBrains Mono',Consolas,'Courier New',monospace" >18,307</text><text x="420" y="436.5" font-size="11" fill="#e6edf3" font-weight="400" text-anchor="end" font-family="'JetBrains Mono',Consolas,'Courier New',monospace" >18,014</text><text x="506" y="436.46" font-size="11" fill="#ef4444" font-weight="700" text-anchor="end" >-1.6%</text><line x1="32" y1="446" x2="516" y2="446" stroke="#21262d" stroke-width="1" /><text x="42" y="463.5" font-size="11" fill="#e6edf3" font-weight="400" text-anchor="start" >130</text><text x="82" y="463.5" font-size="11" fill="#e6edf3" font-weight="400" text-anchor="start" >2026/03/15</text><text x="174" y="463.5" font-size="11" fill="#e6edf3" font-weight="400" text-anchor="start" >31 天</text><rect x="238" y="451.46" width="22" height="16" rx="4" fill="#58a6ff" opacity="0.2"/><text x="249" y="463.46" font-size="10.5" fill="#58a6ff" font-weight="700" text-anchor="middle" >多</text><text x="344" y="463.5" font-size="11" fill="#e6edf3" font-weight="400" text-anchor="end" font-family="'JetBrains Mono',Consolas,'Courier New',monospace" >16,802</text><text x="420" y="463.5" font-size="11" fill="#e6edf3" font-weight="400" text-anchor="end" font-family="'JetBrains Mono',Consolas,'Courier New',monospace" >16,264</text><text x="506" y="463.46" font-size="11" fill="#ef4444" font-weight="700" text-anchor="end" >-3.2%</text><line x1="32" y1="473" x2="516" y2="473" stroke="#21262d" stroke-width="1" /><rect x="540" y="88" width="236" height="250" rx="10" fill="#0f141b" stroke="#21262d"/><text x="556" y="112" font-size="13" fill="#e6edf3" font-weight="900" text-anchor="start" >報酬分布</text><rect x="560.0" y="296" width="12" height="16" rx="2" fill="#ef4444" /><rect x="574.5" y="272" width="12" height="40" rx="2" fill="#ef4444" /><rect x="589.0" y="240" width="12" height="72" rx="2" fill="#ef4444" /><rect x="603.5" y="200" width="12" height="112" rx="2" fill="#ef4444" /><rect x="618.0" y="168" width="12" height="144" rx="2" fill="#ef4444" /><rect x="632.5" y="224" width="12" height="88" rx="2" fill="#22c55e" /><rect x="647.0" y="184" width="12" height="128" rx="2" fill="#22c55e" /><rect x="661.5" y="144" width="12" height="168" rx="2" fill="#22c55e" /><rect x="676.0" y="176" width="12" height="136" rx="2" fill="#22c55e" /><rect x="690.5" y="216" width="12" height="96" rx="2" fill="#22c55e" /><rect x="705.0" y="248" width="12" height="64" rx="2" fill="#22c55e" /><rect x="719.5" y="272" width="12" height="40" rx="2" fill="#22c55e" /><rect x="734.0" y="288" width="12" height="24" rx="2" fill="#22c55e" /><rect x="748.5" y="304" width="12" height="8" rx="2" fill="#22c55e" /><line x1="556" y1="314" x2="760" y2="314" stroke="#21262d" stroke-width="1" /><text x="560" y="330" font-size="9.5" fill="#8b949e" font-weight="400" text-anchor="start" >-6%</text><text x="633" y="330" font-size="9.5" fill="#8b949e" font-weight="400" text-anchor="middle" >0%</text><text x="760" y="330" font-size="9.5" fill="#8b949e" font-weight="400" text-anchor="end" >+12%</text><rect x="540" y="350" width="236" height="128" rx="10" fill="#0f141b" stroke="#21262d"/><text x="556" y="374" font-size="13" fill="#e6edf3" font-weight="900" text-anchor="start" >持倉統計</text><text x="556" y="400" font-size="11" fill="#8b949e" font-weight="400" text-anchor="start" >平均持有天數</text><text x="760" y="400" font-size="12" fill="#e6edf3" font-weight="700" text-anchor="end" >11.4 天</text><text x="556" y="422" font-size="11" fill="#8b949e" font-weight="400" text-anchor="start" >最長連勝</text><text x="760" y="422" font-size="12" fill="#e6edf3" font-weight="700" text-anchor="end" >9 次</text><text x="556" y="444" font-size="11" fill="#8b949e" font-weight="400" text-anchor="start" >最長連敗</text><text x="760" y="444" font-size="12" fill="#e6edf3" font-weight="700" text-anchor="end" >4 次</text><text x="556" y="466" font-size="11" fill="#8b949e" font-weight="400" text-anchor="start" >多 / 空比例</text><text x="760" y="466" font-size="12" fill="#e6edf3" font-weight="700" text-anchor="end" >72% / 28%</text></svg>
